<?xml version="1.0" encoding="UTF-8" standalone="no"?>
<svg width="4.23333mm" height="7.76111mm"
 viewBox="0 0 12 22"
 xmlns="http://www.w3.org/2000/svg" xmlns:xlink="http://www.w3.org/1999/xlink" version="1.2" baseProfile="tiny">
<title>Elliptic Curve</title>
<desc>Drawing generated by the Elliptic Curve Plotter.</desc>
<defs>
</defs>
<g fill="none" stroke="black" stroke-width="1" fill-rule="evenodd" stroke-linecap="square" stroke-linejoin="bevel" >

<g fill="none" stroke="#000000" stroke-opacity="1" stroke-width="1" stroke-linecap="square" stroke-linejoin="bevel" transform="matrix(1,0,0,1,0,0)"
font-family="Noto Sans" font-size="10" font-weight="400" font-style="normal" 
>
</g>

<g fill="none" stroke="#000000" stroke-opacity="1" stroke-width="1" stroke-linecap="square" stroke-linejoin="bevel" transform="matrix(1,0,0,1,5,11)"
font-family="Noto Sans" font-size="10" font-weight="400" font-style="normal" 
>
</g>

<g fill="#ffffff" fill-opacity="1" stroke="none" transform="matrix(1,0,0,1,5,11)"
font-family="Noto Sans" font-size="10" font-weight="400" font-style="normal" 
>
<rect x="-5" y="-11" width="12" height="22"/>
</g>

<g fill="none" stroke="#000000" stroke-opacity="1" stroke-width="1" stroke-linecap="square" stroke-linejoin="bevel" transform="matrix(1,0,0,1,5,11)"
font-family="Noto Sans" font-size="10" font-weight="400" font-style="normal" 
>
</g>

<g fill="none" stroke="#000000" stroke-opacity="1" stroke-width="1" stroke-linecap="square" stroke-linejoin="bevel" transform="matrix(1,0,0,1,5,11)"
font-family="Noto Sans" font-size="10" font-weight="400" font-style="normal" 
>
</g>

<g fill="none" stroke="#808080" stroke-opacity="1" stroke-width="0.05" stroke-linecap="square" stroke-linejoin="bevel" transform="matrix(1,0,0,1,5,11)"
font-family="Noto Sans" font-size="10" font-weight="400" font-style="normal" 
>
<path vector-effect="none" fill-rule="evenodd" d="M-4,0 L6,0 M0,-10 L0,10 M5.75,-0.2 L6,0 L5.75,0.2 M-0.2,-9.75 L0,-10 L0.2,-9.75"/>
</g>

<g fill="none" stroke="#000000" stroke-opacity="1" stroke-width="1" stroke-linecap="square" stroke-linejoin="bevel" transform="matrix(1,0,0,1,5,11)"
font-family="Noto Sans" font-size="10" font-weight="400" font-style="normal" 
>
</g>

<g fill="none" stroke="#000000" stroke-opacity="1" stroke-width="1" stroke-linecap="square" stroke-linejoin="bevel" transform="matrix(0.04,0,0,0.04,11,11)"
font-family="Noto Sans" font-size="10" font-weight="400" font-style="normal" 
>
</g>

<g fill="none" stroke="#000000" stroke-opacity="1" stroke-width="1" stroke-linecap="square" stroke-linejoin="bevel" transform="matrix(0.04,0,0,0.04,11,11)"
font-family="Noto Sans" font-size="10" font-weight="400" font-style="normal" 
>
<text fill="#000000" fill-opacity="1" stroke="none" xml:space="preserve" x="0" y="13.8906" font-family="Noto Sans" font-size="10" font-weight="400" font-style="normal" 
 >x</text>
</g>

<g fill="none" stroke="#000000" stroke-opacity="1" stroke-width="1" stroke-linecap="square" stroke-linejoin="bevel" transform="matrix(0.04,0,0,0.04,11,11)"
font-family="Noto Sans" font-size="10" font-weight="400" font-style="normal" 
>
</g>

<g fill="none" stroke="#000000" stroke-opacity="1" stroke-width="1" stroke-linecap="square" stroke-linejoin="bevel" transform="matrix(0.04,0,0,0.04,5.4,0.6)"
font-family="Noto Sans" font-size="10" font-weight="400" font-style="normal" 
>
</g>

<g fill="none" stroke="#000000" stroke-opacity="1" stroke-width="1" stroke-linecap="square" stroke-linejoin="bevel" transform="matrix(0.04,0,0,0.04,5.4,0.6)"
font-family="Noto Sans" font-size="10" font-weight="400" font-style="normal" 
>
<text fill="#000000" fill-opacity="1" stroke="none" xml:space="preserve" x="0" y="13.8906" font-family="Noto Sans" font-size="10" font-weight="400" font-style="normal" 
 >y</text>
</g>

<g fill="none" stroke="#000000" stroke-opacity="1" stroke-width="1" stroke-linecap="square" stroke-linejoin="bevel" transform="matrix(0.04,0,0,0.04,5.4,0.6)"
font-family="Noto Sans" font-size="10" font-weight="400" font-style="normal" 
>
</g>

<g fill="none" stroke="#000000" stroke-opacity="1" stroke-width="1" stroke-linecap="square" stroke-linejoin="bevel" transform="matrix(1,0,0,1,5,11)"
font-family="Noto Sans" font-size="10" font-weight="400" font-style="normal" 
>
</g>

<g fill="#fafaf0" fill-opacity="1" stroke="#808080" stroke-opacity="1" stroke-width="0.02" stroke-linecap="square" stroke-linejoin="bevel" transform="matrix(1,0,0,1,5,11)"
font-family="Noto Sans" font-size="10" font-weight="400" font-style="normal" 
>
<rect x="7" y="-10" width="2.5" height="4.2"/>
</g>

<g fill="none" stroke="#000000" stroke-opacity="1" stroke-width="1" stroke-linecap="square" stroke-linejoin="bevel" transform="matrix(1,0,0,1,5,11)"
font-family="Noto Sans" font-size="10" font-weight="400" font-style="normal" 
>
</g>

<g fill="none" stroke="#000000" stroke-opacity="1" stroke-width="1" stroke-linecap="square" stroke-linejoin="bevel" transform="matrix(1,0,0,1,5,11)"
font-family="Noto Sans" font-size="10" font-weight="400" font-style="normal" 
>
</g>

<g fill="none" stroke="#000000" stroke-opacity="1" stroke-width="0.08" stroke-linecap="square" stroke-linejoin="bevel" transform="matrix(1,0,0,1,5,11)"
font-family="Noto Sans" font-size="10" font-weight="400" font-style="normal" 
>
<path vector-effect="none" fill-rule="evenodd" d="M-2.8,0 L-2.8,0.219089 L-2.78,0.644242 L-2.76,0.880582 L-2.74,1.06263 L-2.72,1.21505 L-2.7,1.34796 L-2.68,1.46669 L-2.66,1.57445 L-2.64,1.6734 L-2.62,1.76501 L-2.6,1.85041 L-2.58,1.93041 L-2.56,2.00569 L-2.54,2.07676 L-2.52,2.14406 L-2.5,2.20794 L-2.48,2.2687 L-2.46,2.3266 L-2.44,2.38185 L-2.42,2.43465 L-2.4,2.48516 L-2.38,2.53352 L-2.36,2.57987 L-2.34,2.62433 L-2.32,2.66699 L-2.3,2.70795 L-2.28,2.7473 L-2.26,2.78511 L-2.24,2.82145 L-2.22,2.85639 L-2.2,2.88998 L-2.18,2.92229 L-2.16,2.95335 L-2.14,2.98323 L-2.12,3.01195 L-2.1,3.03957 L-2.08,3.06612 L-2.06,3.09163 L-2.04,3.11614 L-2.02,3.13968 L-2,3.16228 L-1.98,3.18396 L-1.96,3.20476 L-1.94,3.22469 L-1.92,3.24378 L-1.9,3.26205 L-1.88,3.27953 L-1.86,3.29623 L-1.84,3.31217 L-1.82,3.32738 L-1.8,3.34186 L-1.78,3.35563 L-1.76,3.36871 L-1.74,3.38112 L-1.72,3.39287 L-1.7,3.40397 L-1.68,3.41444 L-1.66,3.42428 L-1.64,3.43352 L-1.62,3.44216 L-1.6,3.45022 L-1.58,3.4577 L-1.56,3.46462 L-1.54,3.47098 L-1.52,3.47681 L-1.5,3.4821 L-1.48,3.48686 L-1.46,3.49111 L-1.44,3.49486 L-1.42,3.4981 L-1.4,3.50086 L-1.38,3.50313 L-1.36,3.50493 L-1.34,3.50627 L-1.32,3.50714 L-1.3,3.50756 L-1.28,3.50754 L-1.26,3.50708 L-1.24,3.50619 L-1.22,3.50488 L-1.2,3.50314 L-1.18,3.501 L-1.16,3.49844 L-1.14,3.49549 L-1.12,3.49214 L-1.1,3.48841 L-1.08,3.48429 L-1.06,3.4798 L-1.04,3.47493 L-1.02,3.4697 L-1,3.4641 L-0.98,3.45815 L-0.96,3.45185 L-0.94,3.4452 L-0.92,3.43821 L-0.9,3.43089 L-0.88,3.42323 L-0.86,3.41525 L-0.84,3.40695 L-0.82,3.39833 L-0.8,3.3894 L-0.78,3.38016 L-0.76,3.37061 L-0.74,3.36077 L-0.72,3.35063 L-0.7,3.34021 L-0.68,3.3295 L-0.66,3.31851 L-0.64,3.30724 L-0.62,3.29571 L-0.6,3.2839 L-0.58,3.27183 L-0.56,3.25951 L-0.54,3.24693 L-0.52,3.2341 L-0.5,3.22102 L-0.48,3.20771 L-0.46,3.19416 L-0.44,3.18038 L-0.42,3.16637 L-0.4,3.15214 L-0.38,3.13769 L-0.36,3.12303 L-0.34,3.10817 L-0.32,3.09309 L-0.3,3.07782 L-0.28,3.06236 L-0.26,3.04671 L-0.24,3.03087 L-0.22,3.01486 L-0.2,2.99867 L-0.18,2.98231 L-0.16,2.96579 L-0.14,2.94911 L-0.12,2.93228 L-0.1,2.9153 L-0.08,2.89819 L-0.06,2.88093 L-0.04,2.86355 L-0.02,2.84605 L3.72619e-15,2.82843 L0.02,2.8107 L0.04,2.79286 L0.06,2.77493 L0.08,2.7569 L0.1,2.7388 L0.12,2.72061 L0.14,2.70236 L0.16,2.68404 L0.18,2.66568 L0.2,2.64726 L0.22,2.62881 L0.24,2.61033 L0.26,2.59183 L0.28,2.57332 L0.3,2.5548 L0.32,2.53629 L0.34,2.5178 L0.36,2.49933 L0.38,2.4809 L0.4,2.46252 L0.42,2.44419 L0.44,2.42594 L0.46,2.40777 L0.48,2.38968 L0.5,2.37171 L0.52,2.35385 L0.54,2.33612 L0.56,2.31854 L0.58,2.30111 L0.6,2.28386 L0.62,2.26679 L0.64,2.24992 L0.66,2.23327 L0.68,2.21685 L0.7,2.20068 L0.72,2.18478 L0.74,2.16915 L0.76,2.15383 L0.78,2.13882 L0.8,2.12415 L0.82,2.10983 L0.84,2.09588 L0.86,2.08232 L0.88,2.06917 L0.9,2.05645 L0.92,2.04418 L0.94,2.03238 L0.96,2.02107 L0.98,2.01027 L1,2 L1.02,1.99028 L1.04,1.98113 L1.06,1.97257 L1.08,1.96461 L1.1,1.95729 L1.12,1.95062 L1.14,1.94462 L1.16,1.9393 L1.18,1.93469 L1.2,1.9308 L1.22,1.92765 L1.24,1.92526 L1.26,1.92364 L1.28,1.9228 L1.3,1.92276 L1.32,1.92353 L1.34,1.92512 L1.36,1.92755 L1.38,1.93082 L1.4,1.93494 L1.42,1.93992 L1.44,1.94576 L1.46,1.95247 L1.48,1.96005 L1.5,1.9685 L1.52,1.97783 L1.54,1.98803 L1.56,1.9991 L1.58,2.01105 L1.6,2.02386 L1.62,2.03753 L1.64,2.05206 L1.66,2.06744 L1.68,2.08366 L1.7,2.10071 L1.72,2.1186 L1.74,2.13729 L1.76,2.1568 L1.78,2.1771 L1.8,2.19818 L1.82,2.22004 L1.84,2.24266 L1.86,2.26602 L1.88,2.29012 L1.9,2.31495 L1.92,2.34049 L1.94,2.36672 L1.96,2.39364 L1.98,2.42124 L2,2.44949 L2.02,2.47839 L2.04,2.50792 L2.06,2.53807 L2.08,2.56883 L2.1,2.60019 L2.12,2.63213 L2.14,2.66465 L2.16,2.69772 L2.18,2.73134 L2.2,2.7655 L2.22,2.80019 L2.24,2.83539 L2.26,2.87109 L2.28,2.90729 L2.3,2.94398 L2.32,2.98114 L2.34,3.01876 L2.36,3.05684 L2.38,3.09536 L2.4,3.13433 L2.42,3.17372 L2.44,3.21353 L2.46,3.25376 L2.48,3.29439 L2.5,3.33542 L2.52,3.37683 L2.54,3.41863 L2.56,3.46081 L2.58,3.50336 L2.6,3.54627 L2.62,3.58953 L2.64,3.63315 L2.66,3.6771 L2.68,3.7214 L2.7,3.76603 L2.72,3.81099 L2.74,3.85627 L2.76,3.90187 L2.78,3.94778 L2.8,3.994 L2.82,4.04052 L2.84,4.08733 L2.86,4.13445 L2.88,4.18185 L2.9,4.22954 L2.92,4.27751 L2.94,4.32576 L2.96,4.37428 L2.98,4.42307 L3,4.47214 L3.02,4.52146 L3.04,4.57105 L3.06,4.62089 L3.08,4.67099 L3.1,4.72133 L3.12,4.77193 L3.14,4.82277 L3.16,4.87386 L3.18,4.92518 L3.2,4.97675 L3.22,5.02854 L3.24,5.08057 L3.26,5.13283 L3.28,5.18532 L3.3,5.23803 L3.32,5.29097 L3.34,5.34413 L3.36,5.3975 L3.38,5.4511 L3.4,5.50491 L3.42,5.55893 L3.44,5.61316 L3.46,5.6676 L3.48,5.72225 L3.5,5.77711 L3.52,5.83217 L3.54,5.88743 L3.56,5.9429 L3.58,5.99856 L3.6,6.05442 L3.62,6.11048 L3.64,6.16673 L3.66,6.22317 L3.68,6.27981 L3.7,6.33664 L3.72,6.39366 L3.74,6.45086 L3.76,6.50825 L3.78,6.56583 L3.8,6.62359 L3.82,6.68154 L3.84,6.73967 L3.86,6.79797 L3.88,6.85646 L3.9,6.91513 L3.92,6.97397 L3.94,7.03299 L3.96,7.09219 L3.98,7.15156 L4,7.2111 L4.02,7.27082 L4.04,7.33071 L4.06,7.39077 L4.08,7.45099 L4.1,7.51139 L4.12,7.57196 L4.14,7.63269 L4.16,7.69359 L4.18,7.75465 L4.2,7.81588 L4.22,7.87727 L4.24,7.93883 L4.26,8.00055 L4.28,8.06243 L4.3,8.12447 L4.32,8.18667 L4.34,8.24903 L4.36,8.31155 L4.38,8.37423 L4.4,8.43706 L4.42,8.50005 L4.44,8.5632 L4.46,8.6265 L4.48,8.68996 L4.5,8.75357 L4.52,8.81734 L4.54,8.88125 L4.56,8.94532 L4.58,9.00955 L4.6,9.07392 L4.62,9.13844 L4.64,9.20312 L4.66,9.26794 L4.68,9.33291 L4.7,9.39803 L4.72,9.4633 L4.74,9.52872 L4.76,9.59428 L4.78,9.65999 L4.8,9.72584 L4.82,9.79184 L4.84,9.85799 L4.86,9.92428 L4.88,9.99071 M-2.8,0 L-2.8,-0.219089 L-2.78,-0.644242 L-2.76,-0.880582 L-2.74,-1.06263 L-2.72,-1.21505 L-2.7,-1.34796 L-2.68,-1.46669 L-2.66,-1.57445 L-2.64,-1.6734 L-2.62,-1.76501 L-2.6,-1.85041 L-2.58,-1.93041 L-2.56,-2.00569 L-2.54,-2.07676 L-2.52,-2.14406 L-2.5,-2.20794 L-2.48,-2.2687 L-2.46,-2.3266 L-2.44,-2.38185 L-2.42,-2.43465 L-2.4,-2.48516 L-2.38,-2.53352 L-2.36,-2.57987 L-2.34,-2.62433 L-2.32,-2.66699 L-2.3,-2.70795 L-2.28,-2.7473 L-2.26,-2.78511 L-2.24,-2.82145 L-2.22,-2.85639 L-2.2,-2.88998 L-2.18,-2.92229 L-2.16,-2.95335 L-2.14,-2.98323 L-2.12,-3.01195 L-2.1,-3.03957 L-2.08,-3.06612 L-2.06,-3.09163 L-2.04,-3.11614 L-2.02,-3.13968 L-2,-3.16228 L-1.98,-3.18396 L-1.96,-3.20476 L-1.94,-3.22469 L-1.92,-3.24378 L-1.9,-3.26205 L-1.88,-3.27953 L-1.86,-3.29623 L-1.84,-3.31217 L-1.82,-3.32738 L-1.8,-3.34186 L-1.78,-3.35563 L-1.76,-3.36871 L-1.74,-3.38112 L-1.72,-3.39287 L-1.7,-3.40397 L-1.68,-3.41444 L-1.66,-3.42428 L-1.64,-3.43352 L-1.62,-3.44216 L-1.6,-3.45022 L-1.58,-3.4577 L-1.56,-3.46462 L-1.54,-3.47098 L-1.52,-3.47681 L-1.5,-3.4821 L-1.48,-3.48686 L-1.46,-3.49111 L-1.44,-3.49486 L-1.42,-3.4981 L-1.4,-3.50086 L-1.38,-3.50313 L-1.36,-3.50493 L-1.34,-3.50627 L-1.32,-3.50714 L-1.3,-3.50756 L-1.28,-3.50754 L-1.26,-3.50708 L-1.24,-3.50619 L-1.22,-3.50488 L-1.2,-3.50314 L-1.18,-3.501 L-1.16,-3.49844 L-1.14,-3.49549 L-1.12,-3.49214 L-1.1,-3.48841 L-1.08,-3.48429 L-1.06,-3.4798 L-1.04,-3.47493 L-1.02,-3.4697 L-1,-3.4641 L-0.98,-3.45815 L-0.96,-3.45185 L-0.94,-3.4452 L-0.92,-3.43821 L-0.9,-3.43089 L-0.88,-3.42323 L-0.86,-3.41525 L-0.84,-3.40695 L-0.82,-3.39833 L-0.8,-3.3894 L-0.78,-3.38016 L-0.76,-3.37061 L-0.74,-3.36077 L-0.72,-3.35063 L-0.7,-3.34021 L-0.68,-3.3295 L-0.66,-3.31851 L-0.64,-3.30724 L-0.62,-3.29571 L-0.6,-3.2839 L-0.58,-3.27183 L-0.56,-3.25951 L-0.54,-3.24693 L-0.52,-3.2341 L-0.5,-3.22102 L-0.48,-3.20771 L-0.46,-3.19416 L-0.44,-3.18038 L-0.42,-3.16637 L-0.4,-3.15214 L-0.38,-3.13769 L-0.36,-3.12303 L-0.34,-3.10817 L-0.32,-3.09309 L-0.3,-3.07782 L-0.28,-3.06236 L-0.26,-3.04671 L-0.24,-3.03087 L-0.22,-3.01486 L-0.2,-2.99867 L-0.18,-2.98231 L-0.16,-2.96579 L-0.14,-2.94911 L-0.12,-2.93228 L-0.1,-2.9153 L-0.08,-2.89819 L-0.06,-2.88093 L-0.04,-2.86355 L-0.02,-2.84605 L3.72619e-15,-2.82843 L0.02,-2.8107 L0.04,-2.79286 L0.06,-2.77493 L0.08,-2.7569 L0.1,-2.7388 L0.12,-2.72061 L0.14,-2.70236 L0.16,-2.68404 L0.18,-2.66568 L0.2,-2.64726 L0.22,-2.62881 L0.24,-2.61033 L0.26,-2.59183 L0.28,-2.57332 L0.3,-2.5548 L0.32,-2.53629 L0.34,-2.5178 L0.36,-2.49933 L0.38,-2.4809 L0.4,-2.46252 L0.42,-2.44419 L0.44,-2.42594 L0.46,-2.40777 L0.48,-2.38968 L0.5,-2.37171 L0.52,-2.35385 L0.54,-2.33612 L0.56,-2.31854 L0.58,-2.30111 L0.6,-2.28386 L0.62,-2.26679 L0.64,-2.24992 L0.66,-2.23327 L0.68,-2.21685 L0.7,-2.20068 L0.72,-2.18478 L0.74,-2.16915 L0.76,-2.15383 L0.78,-2.13882 L0.8,-2.12415 L0.82,-2.10983 L0.84,-2.09588 L0.86,-2.08232 L0.88,-2.06917 L0.9,-2.05645 L0.92,-2.04418 L0.94,-2.03238 L0.96,-2.02107 L0.98,-2.01027 L1,-2 L1.02,-1.99028 L1.04,-1.98113 L1.06,-1.97257 L1.08,-1.96461 L1.1,-1.95729 L1.12,-1.95062 L1.14,-1.94462 L1.16,-1.9393 L1.18,-1.93469 L1.2,-1.9308 L1.22,-1.92765 L1.24,-1.92526 L1.26,-1.92364 L1.28,-1.9228 L1.3,-1.92276 L1.32,-1.92353 L1.34,-1.92512 L1.36,-1.92755 L1.38,-1.93082 L1.4,-1.93494 L1.42,-1.93992 L1.44,-1.94576 L1.46,-1.95247 L1.48,-1.96005 L1.5,-1.9685 L1.52,-1.97783 L1.54,-1.98803 L1.56,-1.9991 L1.58,-2.01105 L1.6,-2.02386 L1.62,-2.03753 L1.64,-2.05206 L1.66,-2.06744 L1.68,-2.08366 L1.7,-2.10071 L1.72,-2.1186 L1.74,-2.13729 L1.76,-2.1568 L1.78,-2.1771 L1.8,-2.19818 L1.82,-2.22004 L1.84,-2.24266 L1.86,-2.26602 L1.88,-2.29012 L1.9,-2.31495 L1.92,-2.34049 L1.94,-2.36672 L1.96,-2.39364 L1.98,-2.42124 L2,-2.44949 L2.02,-2.47839 L2.04,-2.50792 L2.06,-2.53807 L2.08,-2.56883 L2.1,-2.60019 L2.12,-2.63213 L2.14,-2.66465 L2.16,-2.69772 L2.18,-2.73134 L2.2,-2.7655 L2.22,-2.80019 L2.24,-2.83539 L2.26,-2.87109 L2.28,-2.90729 L2.3,-2.94398 L2.32,-2.98114 L2.34,-3.01876 L2.36,-3.05684 L2.38,-3.09536 L2.4,-3.13433 L2.42,-3.17372 L2.44,-3.21353 L2.46,-3.25376 L2.48,-3.29439 L2.5,-3.33542 L2.52,-3.37683 L2.54,-3.41863 L2.56,-3.46081 L2.58,-3.50336 L2.6,-3.54627 L2.62,-3.58953 L2.64,-3.63315 L2.66,-3.6771 L2.68,-3.7214 L2.7,-3.76603 L2.72,-3.81099 L2.74,-3.85627 L2.76,-3.90187 L2.78,-3.94778 L2.8,-3.994 L2.82,-4.04052 L2.84,-4.08733 L2.86,-4.13445 L2.88,-4.18185 L2.9,-4.22954 L2.92,-4.27751 L2.94,-4.32576 L2.96,-4.37428 L2.98,-4.42307 L3,-4.47214 L3.02,-4.52146 L3.04,-4.57105 L3.06,-4.62089 L3.08,-4.67099 L3.1,-4.72133 L3.12,-4.77193 L3.14,-4.82277 L3.16,-4.87386 L3.18,-4.92518 L3.2,-4.97675 L3.22,-5.02854 L3.24,-5.08057 L3.26,-5.13283 L3.28,-5.18532 L3.3,-5.23803 L3.32,-5.29097 L3.34,-5.34413 L3.36,-5.3975 L3.38,-5.4511 L3.4,-5.50491 L3.42,-5.55893 L3.44,-5.61316 L3.46,-5.6676 L3.48,-5.72225 L3.5,-5.77711 L3.52,-5.83217 L3.54,-5.88743 L3.56,-5.9429 L3.58,-5.99856 L3.6,-6.05442 L3.62,-6.11048 L3.64,-6.16673 L3.66,-6.22317 L3.68,-6.27981 L3.7,-6.33664 L3.72,-6.39366 L3.74,-6.45086 L3.76,-6.50825 L3.78,-6.56583 L3.8,-6.62359 L3.82,-6.68154 L3.84,-6.73967 L3.86,-6.79797 L3.88,-6.85646 L3.9,-6.91513 L3.92,-6.97397 L3.94,-7.03299 L3.96,-7.09219 L3.98,-7.15156 L4,-7.2111 L4.02,-7.27082 L4.04,-7.33071 L4.06,-7.39077 L4.08,-7.45099 L4.1,-7.51139 L4.12,-7.57196 L4.14,-7.63269 L4.16,-7.69359 L4.18,-7.75465 L4.2,-7.81588 L4.22,-7.87727 L4.24,-7.93883 L4.26,-8.00055 L4.28,-8.06243 L4.3,-8.12447 L4.32,-8.18667 L4.34,-8.24903 L4.36,-8.31155 L4.38,-8.37423 L4.4,-8.43706 L4.42,-8.50005 L4.44,-8.5632 L4.46,-8.6265 L4.48,-8.68996 L4.5,-8.75357 L4.52,-8.81734 L4.54,-8.88125 L4.56,-8.94532 L4.58,-9.00955 L4.6,-9.07392 L4.62,-9.13844 L4.64,-9.20312 L4.66,-9.26794 L4.68,-9.33291 L4.7,-9.39803 L4.72,-9.4633 L4.74,-9.52872 L4.76,-9.59428 L4.78,-9.65999 L4.8,-9.72584 L4.82,-9.79184 L4.84,-9.85799 L4.86,-9.92428 L4.88,-9.99071"/>
</g>

<g fill="none" stroke="#000000" stroke-opacity="1" stroke-width="1" stroke-linecap="square" stroke-linejoin="bevel" transform="matrix(1,0,0,1,5,11)"
font-family="Noto Sans" font-size="10" font-weight="400" font-style="normal" 
>
</g>

<g fill="none" stroke="#000000" stroke-opacity="1" stroke-width="1" stroke-linecap="square" stroke-linejoin="bevel" transform="matrix(1,0,0,1,5,11)"
font-family="Noto Sans" font-size="10" font-weight="400" font-style="normal" 
>
</g>

<g fill="none" stroke="#000000" stroke-opacity="1" stroke-width="1" stroke-linecap="square" stroke-linejoin="bevel" transform="matrix(1,0,0,1,5,11)"
font-family="Noto Sans" font-size="10" font-weight="400" font-style="normal" 
>
</g>

<g fill="none" stroke="#000000" stroke-opacity="1" stroke-width="1" stroke-linecap="square" stroke-linejoin="bevel" transform="matrix(1,0,0,1,8.07845,6.3329)"
font-family="Noto Sans" font-size="10" font-weight="400" font-style="normal" 
>
</g>

<g fill="#ff0000" fill-opacity="1" stroke="#000000" stroke-opacity="1" stroke-width="0.03" stroke-linecap="square" stroke-linejoin="bevel" transform="matrix(1,0,0,1,8.07845,6.3329)"
font-family="Noto Sans" font-size="10" font-weight="400" font-style="normal" 
>
<circle cx="0" cy="0" r="0.15"/>
</g>

<g fill="none" stroke="#000000" stroke-opacity="1" stroke-width="1" stroke-linecap="square" stroke-linejoin="bevel" transform="matrix(1,0,0,1,8.07845,6.3329)"
font-family="Noto Sans" font-size="10" font-weight="400" font-style="normal" 
>
</g>

<g fill="none" stroke="#000000" stroke-opacity="1" stroke-width="1" stroke-linecap="square" stroke-linejoin="bevel" transform="matrix(0.04,0,0,0.04,8.35918,6.14736)"
font-family="Noto Sans" font-size="10" font-weight="400" font-style="normal" 
>
</g>

<g fill="none" stroke="#000000" stroke-opacity="1" stroke-width="1" stroke-linecap="square" stroke-linejoin="bevel" transform="matrix(0.04,0,0,0.04,8.35918,6.14736)"
font-family="Noto Sans" font-size="10" font-weight="400" font-style="normal" 
>
<text fill="#000000" fill-opacity="1" stroke="none" xml:space="preserve" x="0" y="13.8906" font-family="Noto Sans" font-size="10" font-weight="400" font-style="normal" 
 >P</text>
</g>

<g fill="none" stroke="#000000" stroke-opacity="1" stroke-width="1" stroke-linecap="square" stroke-linejoin="bevel" transform="matrix(0.04,0,0,0.04,8.35918,6.14736)"
font-family="Noto Sans" font-size="10" font-weight="400" font-style="normal" 
>
</g>

<g fill="none" stroke="#000000" stroke-opacity="1" stroke-width="1" stroke-linecap="square" stroke-linejoin="bevel" transform="matrix(1,0,0,1,5,11)"
font-family="Noto Sans" font-size="10" font-weight="400" font-style="normal" 
>
</g>

<g fill="none" stroke="#000000" stroke-opacity="1" stroke-width="1" stroke-linecap="square" stroke-linejoin="bevel" transform="matrix(1,0,0,1,5,11)"
font-family="Noto Sans" font-size="10" font-weight="400" font-style="normal" 
>
</g>

<g fill="none" stroke="#000000" stroke-opacity="1" stroke-width="1" stroke-linecap="square" stroke-linejoin="bevel" transform="matrix(1,0,0,1,5,11)"
font-family="Noto Sans" font-size="10" font-weight="400" font-style="normal" 
>
</g>

<g fill="none" stroke="#000000" stroke-opacity="1" stroke-width="1" stroke-linecap="square" stroke-linejoin="bevel" transform="matrix(1,0,0,1,5,11)"
font-family="Noto Sans" font-size="10" font-weight="400" font-style="normal" 
>
</g>

<g fill="none" stroke="#000000" stroke-opacity="1" stroke-width="1" stroke-linecap="square" stroke-linejoin="bevel" transform="matrix(1,0,0,1,5,11)"
font-family="Noto Sans" font-size="10" font-weight="400" font-style="normal" 
>
</g>

<g fill="none" stroke="#000000" stroke-opacity="1" stroke-width="1" stroke-linecap="square" stroke-linejoin="bevel" transform="matrix(1,0,0,1,5,11)"
font-family="Noto Sans" font-size="10" font-weight="400" font-style="normal" 
>
</g>

<g fill="none" stroke="#000000" stroke-opacity="1" stroke-width="1" stroke-linecap="square" stroke-linejoin="bevel" transform="matrix(1,0,0,1,6.37444,9.07017)"
font-family="Noto Sans" font-size="10" font-weight="400" font-style="normal" 
>
</g>

<g fill="#ff0000" fill-opacity="1" stroke="#000000" stroke-opacity="1" stroke-width="0.03" stroke-linecap="square" stroke-linejoin="bevel" transform="matrix(1,0,0,1,6.37444,9.07017)"
font-family="Noto Sans" font-size="10" font-weight="400" font-style="normal" 
>
<circle cx="0" cy="0" r="0.15"/>
</g>

<g fill="none" stroke="#000000" stroke-opacity="1" stroke-width="1" stroke-linecap="square" stroke-linejoin="bevel" transform="matrix(1,0,0,1,6.37444,9.07017)"
font-family="Noto Sans" font-size="10" font-weight="400" font-style="normal" 
>
</g>

<g fill="none" stroke="#000000" stroke-opacity="1" stroke-width="1" stroke-linecap="square" stroke-linejoin="bevel" transform="matrix(0.04,0,0,0.04,6.2561,9.19876)"
font-family="Noto Sans" font-size="10" font-weight="400" font-style="normal" 
>
</g>

<g fill="none" stroke="#000000" stroke-opacity="1" stroke-width="1" stroke-linecap="square" stroke-linejoin="bevel" transform="matrix(0.04,0,0,0.04,6.2561,9.19876)"
font-family="Noto Sans" font-size="10" font-weight="400" font-style="normal" 
>
<text fill="#000000" fill-opacity="1" stroke="none" xml:space="preserve" x="0" y="13.8906" font-family="Noto Sans" font-size="10" font-weight="400" font-style="normal" 
 >Q</text>
</g>

<g fill="none" stroke="#000000" stroke-opacity="1" stroke-width="1" stroke-linecap="square" stroke-linejoin="bevel" transform="matrix(0.04,0,0,0.04,6.2561,9.19876)"
font-family="Noto Sans" font-size="10" font-weight="400" font-style="normal" 
>
</g>

<g fill="none" stroke="#000000" stroke-opacity="1" stroke-width="1" stroke-linecap="square" stroke-linejoin="bevel" transform="matrix(1,0,0,1,5,11)"
font-family="Noto Sans" font-size="10" font-weight="400" font-style="normal" 
>
</g>

<g fill="none" stroke="#800000" stroke-opacity="1" stroke-width="0.03" stroke-linecap="square" stroke-linejoin="bevel" transform="matrix(1,0,0,1,5,11)"
font-family="Noto Sans" font-size="10" font-weight="400" font-style="normal" 
>
<polyline fill="none" vector-effect="none" points="-4,6.7035 6,-9.36018 " />
</g>

<g fill="none" stroke="#000000" stroke-opacity="1" stroke-width="1" stroke-linecap="square" stroke-linejoin="bevel" transform="matrix(1,0,0,1,5,11)"
font-family="Noto Sans" font-size="10" font-weight="400" font-style="normal" 
>
</g>

<g fill="none" stroke="#000000" stroke-opacity="1" stroke-width="1" stroke-linecap="square" stroke-linejoin="bevel" transform="matrix(1,0,0,1,5,11)"
font-family="Noto Sans" font-size="10" font-weight="400" font-style="normal" 
>
</g>

<g fill="none" stroke="#000000" stroke-opacity="1" stroke-width="1" stroke-linecap="square" stroke-linejoin="bevel" transform="matrix(1,0,0,1,5,11)"
font-family="Noto Sans" font-size="10" font-weight="400" font-style="normal" 
>
</g>

<g fill="none" stroke="#000000" stroke-opacity="1" stroke-width="1" stroke-linecap="square" stroke-linejoin="bevel" transform="matrix(1,0,0,1,3.12753,7.71409)"
font-family="Noto Sans" font-size="10" font-weight="400" font-style="normal" 
>
</g>

<g fill="none" stroke="#800000" stroke-opacity="1" stroke-width="0.03" stroke-linecap="square" stroke-linejoin="bevel" transform="matrix(1,0,0,1,3.12753,7.71409)"
font-family="Noto Sans" font-size="10" font-weight="400" font-style="normal" 
>
<polyline fill="none" vector-effect="none" points="0,-1 0,7.57182 " />
</g>

<g fill="none" stroke="#000000" stroke-opacity="1" stroke-width="1" stroke-linecap="square" stroke-linejoin="bevel" transform="matrix(1,0,0,1,3.12753,7.71409)"
font-family="Noto Sans" font-size="10" font-weight="400" font-style="normal" 
>
</g>

<g fill="none" stroke="#000000" stroke-opacity="1" stroke-width="1" stroke-linecap="square" stroke-linejoin="bevel" transform="matrix(1,0,0,1,3.12753,14.2859)"
font-family="Noto Sans" font-size="10" font-weight="400" font-style="normal" 
>
</g>

<g fill="#ffff00" fill-opacity="1" stroke="#000000" stroke-opacity="1" stroke-width="0.03" stroke-linecap="square" stroke-linejoin="bevel" transform="matrix(1,0,0,1,3.12753,14.2859)"
font-family="Noto Sans" font-size="10" font-weight="400" font-style="normal" 
>
<circle cx="0" cy="0" r="0.1"/>
</g>

<g fill="none" stroke="#000000" stroke-opacity="1" stroke-width="1" stroke-linecap="square" stroke-linejoin="bevel" transform="matrix(1,0,0,1,3.12753,14.2859)"
font-family="Noto Sans" font-size="10" font-weight="400" font-style="normal" 
>
</g>

<g fill="none" stroke="#000000" stroke-opacity="1" stroke-width="1" stroke-linecap="square" stroke-linejoin="bevel" transform="matrix(1,0,0,1,3.12753,7.71409)"
font-family="Noto Sans" font-size="10" font-weight="400" font-style="normal" 
>
</g>

<g fill="#ffff00" fill-opacity="1" stroke="#000000" stroke-opacity="1" stroke-width="0.03" stroke-linecap="square" stroke-linejoin="bevel" transform="matrix(1,0,0,1,3.12753,7.71409)"
font-family="Noto Sans" font-size="10" font-weight="400" font-style="normal" 
>
<circle cx="0" cy="0" r="0.15"/>
</g>

<g fill="none" stroke="#000000" stroke-opacity="1" stroke-width="1" stroke-linecap="square" stroke-linejoin="bevel" transform="matrix(1,0,0,1,3.12753,7.71409)"
font-family="Noto Sans" font-size="10" font-weight="400" font-style="normal" 
>
</g>

<g fill="none" stroke="#000000" stroke-opacity="1" stroke-width="1" stroke-linecap="square" stroke-linejoin="bevel" transform="matrix(0.04,0,0,0.04,3.09983,7.92659)"
font-family="Noto Sans" font-size="10" font-weight="400" font-style="normal" 
>
</g>

<g fill="none" stroke="#000000" stroke-opacity="1" stroke-width="1" stroke-linecap="square" stroke-linejoin="bevel" transform="matrix(0.04,0,0,0.04,3.09983,7.92659)"
font-family="Noto Sans" font-size="10" font-weight="400" font-style="normal" 
>
<text fill="#000000" fill-opacity="1" stroke="none" xml:space="preserve" x="0" y="13.8906" font-family="Noto Sans" font-size="10" font-weight="400" font-style="normal" 
 >P+Q</text>
</g>

<g fill="none" stroke="#000000" stroke-opacity="1" stroke-width="1" stroke-linecap="square" stroke-linejoin="bevel" transform="matrix(0.04,0,0,0.04,3.09983,7.92659)"
font-family="Noto Sans" font-size="10" font-weight="400" font-style="normal" 
>
</g>

<g fill="none" stroke="#000000" stroke-opacity="1" stroke-width="1" stroke-linecap="square" stroke-linejoin="bevel" transform="matrix(1,0,0,1,5,11)"
font-family="Noto Sans" font-size="10" font-weight="400" font-style="normal" 
>
</g>

<g fill="none" stroke="#000000" stroke-opacity="1" stroke-width="1" stroke-linecap="square" stroke-linejoin="bevel" transform="matrix(1,0,0,1,5,11)"
font-family="Noto Sans" font-size="10" font-weight="400" font-style="normal" 
>
</g>

<g fill="none" stroke="#000000" stroke-opacity="1" stroke-width="1" stroke-linecap="square" stroke-linejoin="bevel" transform="matrix(1,0,0,1,5,11)"
font-family="Noto Sans" font-size="10" font-weight="400" font-style="normal" 
>
</g>

<g fill="none" stroke="#000000" stroke-opacity="1" stroke-width="1" stroke-linecap="square" stroke-linejoin="bevel" transform="matrix(1,0,0,1,5,11)"
font-family="Noto Sans" font-size="10" font-weight="400" font-style="normal" 
>
</g>

<g fill="none" stroke="#000000" stroke-opacity="1" stroke-width="1" stroke-linecap="square" stroke-linejoin="bevel" transform="matrix(1,0,0,1,5,11)"
font-family="Noto Sans" font-size="10" font-weight="400" font-style="normal" 
>
</g>

<g fill="none" stroke="#000000" stroke-opacity="1" stroke-width="1" stroke-linecap="square" stroke-linejoin="bevel" transform="matrix(1,0,0,1,5,11)"
font-family="Noto Sans" font-size="10" font-weight="400" font-style="normal" 
>
</g>

<g fill="none" stroke="#000000" stroke-opacity="1" stroke-width="1" stroke-linecap="square" stroke-linejoin="bevel" transform="matrix(1,0,0,1,0,0)"
font-family="Noto Sans" font-size="10" font-weight="400" font-style="normal" 
>
</g>
</g>
</svg>
