<?xml version="1.0" encoding="UTF-8"?>
<!DOCTYPE svg PUBLIC "-//W3C//DTD SVG 1.1//EN" "http://www.w3.org/Graphics/SVG/1.1/DTD/svg11.dtd">
<svg width="469mm" height="246mm" viewBox="0 0 46900 24600" version="1.1" xmlns="http://www.w3.org/2000/svg" xmlns:xlink="http://www.w3.org/1999/xlink" stroke-width="28.222" stroke-linejoin="round" xml:space="preserve">
 <path fill="rgb(255,255,255)" stroke="none" d="M 23458,24596 L 0,24596 0,0 46915,0 46915,24596 23458,24596 Z"/>
 <path fill="none" stroke="rgb(179,179,179)" stroke-linejoin="round" d="M 23733,22477 L 4052,22477 4052,2097 43414,2097 43414,22477 23733,22477 Z"/>
 <path fill="none" stroke="rgb(179,179,179)" stroke-linejoin="round" d="M 43414,22476 L 4052,22476"/>
 <path fill="none" stroke="rgb(179,179,179)" stroke-linejoin="round" d="M 43414,19928 L 4052,19928"/>
 <path fill="none" stroke="rgb(179,179,179)" stroke-linejoin="round" d="M 43414,17380 L 4052,17380"/>
 <path fill="none" stroke="rgb(179,179,179)" stroke-linejoin="round" d="M 43414,14833 L 4052,14833"/>
 <path fill="none" stroke="rgb(179,179,179)" stroke-linejoin="round" d="M 43414,12286 L 4052,12286"/>
 <path fill="none" stroke="rgb(179,179,179)" stroke-linejoin="round" d="M 43414,9738 L 4052,9738"/>
 <path fill="none" stroke="rgb(179,179,179)" stroke-linejoin="round" d="M 43414,7191 L 4052,7191"/>
 <path fill="none" stroke="rgb(179,179,179)" stroke-linejoin="round" d="M 43414,4643 L 4052,4643"/>
 <path fill="none" stroke="rgb(179,179,179)" stroke-linejoin="round" d="M 43414,2095 L 4052,2095"/>
 <path fill="none" stroke="rgb(179,179,179)" stroke-linejoin="round" d="M 4052,22626 L 4052,22476"/>
 <path fill="none" stroke="rgb(179,179,179)" stroke-linejoin="round" d="M 4052,22626 L 4052,22476"/>
 <path fill="none" stroke="rgb(179,179,179)" stroke-linejoin="round" d="M 9675,22626 L 9675,22476"/>
 <path fill="none" stroke="rgb(179,179,179)" stroke-linejoin="round" d="M 9675,22626 L 9675,22476"/>
 <path fill="none" stroke="rgb(179,179,179)" stroke-linejoin="round" d="M 15298,22626 L 15298,22476"/>
 <path fill="none" stroke="rgb(179,179,179)" stroke-linejoin="round" d="M 15298,22626 L 15298,22476"/>
 <path fill="none" stroke="rgb(179,179,179)" stroke-linejoin="round" d="M 20921,22626 L 20921,22476"/>
 <path fill="none" stroke="rgb(179,179,179)" stroke-linejoin="round" d="M 20921,22626 L 20921,22476"/>
 <path fill="none" stroke="rgb(179,179,179)" stroke-linejoin="round" d="M 26544,22626 L 26544,22476"/>
 <path fill="none" stroke="rgb(179,179,179)" stroke-linejoin="round" d="M 26544,22626 L 26544,22476"/>
 <path fill="none" stroke="rgb(179,179,179)" stroke-linejoin="round" d="M 32167,22626 L 32167,22476"/>
 <path fill="none" stroke="rgb(179,179,179)" stroke-linejoin="round" d="M 32167,22626 L 32167,22476"/>
 <path fill="none" stroke="rgb(179,179,179)" stroke-linejoin="round" d="M 37790,22626 L 37790,22476"/>
 <path fill="none" stroke="rgb(179,179,179)" stroke-linejoin="round" d="M 37790,22626 L 37790,22476"/>
 <path fill="none" stroke="rgb(179,179,179)" stroke-linejoin="round" d="M 43414,22626 L 43414,22476"/>
 <path fill="none" stroke="rgb(179,179,179)" stroke-linejoin="round" d="M 43414,22626 L 43414,22476"/>
 <path fill="none" stroke="rgb(179,179,179)" stroke-linejoin="round" d="M 4052,22476 L 43414,22476"/>
 <path fill="none" stroke="rgb(179,179,179)" stroke-linejoin="round" d="M 3902,22476 L 4052,22476"/>
 <path fill="none" stroke="rgb(179,179,179)" stroke-linejoin="round" d="M 3902,22476 L 4052,22476"/>
 <path fill="none" stroke="rgb(179,179,179)" stroke-linejoin="round" d="M 3902,19928 L 4052,19928"/>
 <path fill="none" stroke="rgb(179,179,179)" stroke-linejoin="round" d="M 3902,19928 L 4052,19928"/>
 <path fill="none" stroke="rgb(179,179,179)" stroke-linejoin="round" d="M 3902,17380 L 4052,17380"/>
 <path fill="none" stroke="rgb(179,179,179)" stroke-linejoin="round" d="M 3902,17380 L 4052,17380"/>
 <path fill="none" stroke="rgb(179,179,179)" stroke-linejoin="round" d="M 3902,14833 L 4052,14833"/>
 <path fill="none" stroke="rgb(179,179,179)" stroke-linejoin="round" d="M 3902,14833 L 4052,14833"/>
 <path fill="none" stroke="rgb(179,179,179)" stroke-linejoin="round" d="M 3902,12286 L 4052,12286"/>
 <path fill="none" stroke="rgb(179,179,179)" stroke-linejoin="round" d="M 3902,12286 L 4052,12286"/>
 <path fill="none" stroke="rgb(179,179,179)" stroke-linejoin="round" d="M 3902,9738 L 4052,9738"/>
 <path fill="none" stroke="rgb(179,179,179)" stroke-linejoin="round" d="M 3902,9738 L 4052,9738"/>
 <path fill="none" stroke="rgb(179,179,179)" stroke-linejoin="round" d="M 3902,7191 L 4052,7191"/>
 <path fill="none" stroke="rgb(179,179,179)" stroke-linejoin="round" d="M 3902,7191 L 4052,7191"/>
 <path fill="none" stroke="rgb(179,179,179)" stroke-linejoin="round" d="M 3902,4643 L 4052,4643"/>
 <path fill="none" stroke="rgb(179,179,179)" stroke-linejoin="round" d="M 3902,4643 L 4052,4643"/>
 <path fill="none" stroke="rgb(179,179,179)" stroke-linejoin="round" d="M 3902,2095 L 4052,2095"/>
 <path fill="none" stroke="rgb(179,179,179)" stroke-linejoin="round" d="M 3902,2095 L 4052,2095"/>
 <path fill="none" stroke="rgb(179,179,179)" stroke-linejoin="round" d="M 4052,22476 L 4052,2095"/>
 <path fill="none" stroke="rgb(0,69,134)" stroke-width="80" stroke-linejoin="round" d="M 4052,22476 L 4074,22476 4085,22476 4108,22476 4119,22476 4130,22476 4153,22476 4164,22476 4186,22476 4198,22476 4209,22476 4231,22476 4243,22476 4265,22476 4276,22476 4288,22476 4310,22476 4321,22476 4344,22476 4355,22476 4366,22476 4389,22476 4400,22476 4423,22476 4434,22476 4445,22476 4468,22476 4479,22476 4501,22476 4513,22476 4524,22476 4546,22476 4558,22476 4580,22476 4591,22476 4603,22476 4625,22476 4636,22476 4659,22476 4670,22476 4681,22476 4704,22476 4715,22476 4738,22476 4749,22476 4760,22476 4783,22476 4794,22476 4805,22476 4828,22476 4839,22476 4861,22476 4872,22476 4884,22476 4906,22476 4917,22476 4940,22476 4951,22476 4962,22476 4985,22476 4996,22476 5019,22476 5030,22476 5041,22476 5064,22476 5075,22476 5097,22476 5109,22476 5120,22476 5142,22476 5154,22476 5176,22476 5187,22476 5199,22476 5221,22476 5232,22476 5255,22476 5266,22476 5277,22476 5300,22476 5311,22476 5334,22476 5345,22476 5356,22476 5379,22476 5390,22476 5412,22476 5424,22476 5435,22476 5457,22476 5469,22476 5480,22476 5502,22476 5514,22476 5536,22476 5547,22476 5559,22476 5581,22476 5592,22476 5615,22476 5626,22476 5637,22476 5660,22476 5671,22476 5693,22476 5705,22476 5716,22476 5738,22476 5750,22476 5772,22476 5783,22476 5795,22476 5817,22476 5828,22476 5851,22476 5862,22476 5873,22476 5896,22476 5907,22476 5930,22476 5941,22476 5952,22476 5975,22475 5986,22475 6008,22475 6020,22475 6031,22475 6053,22475 6065,22475 6087,22475 6098,22475 6110,22475 6132,22475 6143,22475 6166,22475 6177,22475 6188,22475 6211,22475 6222,22475 6233,22475 6256,22475 6267,22475 6290,22475 6301,22475 6312,22475 6335,22475 6346,22475 6368,22475 6380,22475 6391,22475 6413,22475 6425,22475 6447,22475 6458,22475 6470,22475 6492,22475 6503,22475 6526,22475 6537,22475 6548,22474 6571,22474 6582,22474 6604,22473 6616,22473 6627,22472 6649,22472 6661,22471 6683,22470 6694,22469 6706,22468 6728,22466 6739,22465 6762,22462 6773,22460 6784,22459 6807,22455 6818,22452 6841,22447 6852,22444 6863,22440 6886,22433 6897,22428 6908,22424 6931,22413 6942,22407 6964,22394 6976,22387 6987,22379 7009,22361 7021,22351 7043,22329 7054,22317 7066,22304 7077,22291 7088,22276 7099,22261 7111,22244 7122,22227 7133,22209 7144,22189 7156,22169 7167,22147 7178,22124 7189,22100 7201,22074 7212,22047 7223,22019 7234,21990 7246,21958 7257,21926 7268,21892 7279,21856 7291,21819 7302,21780 7313,21739 7324,21696 7335,21652 7347,21606 7358,21558 7369,21508 7380,21456 7392,21402 7403,21346 7414,21288 7425,21228 7437,21166 7448,21101 7459,21035 7470,20966 7482,20895 7493,20822 7504,20746 7515,20669 7527,20589 7538,20506 7549,20422 7560,20335 7572,20245 7583,20154 7594,20060 7605,19963 7617,19864 7628,19763 7639,19660 7650,19554 7662,19446 7673,19335 7684,19223 7695,19108 7707,18990 7718,18871 7729,18749 7740,18625 7752,18499 7763,18370 7774,18240 7785,18107 7797,17973 7808,17836 7819,17698 7830,17557 7842,17415 7853,17270 7864,17124 7875,16977 7887,16827 7898,16676 7909,16523 7920,16369 7932,16213 7943,16056 7954,15898 7965,15738 7977,15577 7988,15415 7999,15251 8010,15087 8022,14922 8033,14755 8044,14588 8055,14420 8067,14251 8078,14082 8089,13912 8100,13742 8112,13571 8123,13400 8134,13228 8145,13056 8156,12884 8168,12712 8179,12540 8190,12368 8201,12197 8213,12025 8224,11854 8235,11683 8246,11512 8258,11342 8269,11172 8280,11003 8291,10834 8303,10666 8314,10499 8325,10333 8336,10168 8348,10003 8359,9840 8370,9678 8381,9517 8393,9357 8404,9198 8415,9041 8426,8885 8438,8731 8449,8578 8460,8426 8471,8276 8483,8128 8494,7981 8505,7836 8516,7693 8528,7552 8539,7412 8550,7275 8561,7139 8573,7005 8584,6874 8595,6744 8606,6616 8618,6491 8629,6367 8640,6246 8651,6127 8663,6010 8674,5895 8685,5783 8696,5673 8708,5565 8719,5459 8730,5356 8741,5255 8753,5157 8764,5060 8775,4967 8786,4875 8798,4786 8809,4700 8820,4616 8831,4534 8843,4455 8854,4378 8865,4304 8876,4232 8888,4163 8899,4096 8910,4031 8921,3969 8933,3909 8944,3852 8955,3797 8966,3745 8977,3695 8989,3648 9000,3602 9011,3560 9022,3519 9034,3481 9045,3446 9056,3412 9067,3381 9079,3353 9090,3326 9101,3302 9112,3281 9124,3261 9135,3244 9146,3229 9157,3216 9169,3205 9191,3190 9202,3185 9225,3183 9236,3185 9247,3189 9259,3195 9270,3202 9281,3212 9292,3224 9304,3238 9315,3253 9326,3270 9337,3290 9349,3311 9360,3333 9371,3358 9382,3384 9394,3412 9405,3442 9416,3473 9427,3506 9439,3540 9450,3576 9461,3614 9472,3653 9484,3693 9495,3735 9506,3779 9517,3824 9529,3870 9540,3917 9551,3966 9562,4017 9574,4068 9585,4121 9596,4175 9607,4230 9619,4286 9630,4344 9641,4402 9652,4462 9664,4523 9675,4584 9686,4647 9697,4711 9709,4776 9720,4841 9731,4908 9742,4975 9754,5044 9765,5113 9776,5183 9787,5254 9798,5325 9810,5397 9821,5470 9832,5544 9843,5619 9855,5694 9866,5769 9877,5846 9888,5922 9900,6000 9911,6078 9922,6156 9933,6235 9945,6315 9956,6395 9967,6475 9978,6556 9990,6638 10001,6719 10012,6801 10023,6884 10035,6966 10046,7049 10057,7133 10068,7216 10080,7300 10091,7384 10102,7469 10113,7553 10125,7638 10136,7723 10147,7808 10158,7893 10170,7979 10181,8064 10192,8150 10203,8236 10215,8321 10226,8407 10237,8493 10248,8579 10260,8665 10271,8751 10282,8837 10293,8923 10305,9009 10316,9095 10327,9181 10338,9267 10350,9352 10361,9438 10372,9523 10383,9609 10395,9694 10406,9779 10417,9865 10428,9949 10440,10034 10451,10119 10462,10203 10473,10288 10485,10372 10496,10456 10507,10539 10518,10623 10530,10706 10541,10789 10552,10872 10563,10955 10575,11037 10586,11119 10597,11201 10608,11282 10619,11364 10631,11445 10642,11525 10653,11606 10664,11686 10676,11766 10687,11845 10698,11924 10709,12003 10721,12082 10732,12160 10743,12238 10754,12315 10766,12392 10777,12469 10788,12545 10799,12622 10811,12698 10822,12773 10833,12848 10844,12923 10856,12998 10867,13072 10878,13145 10889,13219 10901,13292 10912,13364 10923,13436 10934,13508 10946,13580 10957,13651 10968,13722 10979,13792 10991,13862 11002,13931 11013,14000 11024,14069 11036,14137 11047,14205 11058,14273 11069,14340 11081,14407 11092,14473 11103,14539 11114,14605 11126,14670 11137,14734 11148,14799 11159,14863 11171,14926 11182,14989 11193,15052 11204,15114 11216,15176 11227,15238 11238,15299 11249,15360 11261,15420 11272,15480 11283,15539 11294,15599 11306,15657 11317,15716 11328,15773 11339,15831 11351,15888 11362,15945 11373,16001 11384,16057 11396,16113 11407,16168 11418,16222 11429,16277 11440,16331 11452,16384 11463,16438 11474,16490 11485,16543 11497,16595 11508,16646 11519,16698 11530,16749 11542,16799 11553,16849 11564,16899 11575,16948 11587,16997 11598,17046 11609,17094 11620,17142 11632,17190 11643,17237 11654,17284 11665,17330 11677,17376 11688,17422 11699,17467 11710,17512 11722,17557 11733,17601 11744,17645 11755,17689 11767,17732 11778,17775 11789,17818 11800,17860 11812,17902 11823,17943 11834,17985 11845,18025 11857,18066 11868,18106 11879,18146 11890,18186 11902,18225 11913,18264 11924,18302 11935,18341 11947,18379 11958,18416 11969,18454 11980,18491 11992,18527 12003,18564 12014,18600 12025,18636 12037,18671 12048,18707 12059,18741 12070,18776 12082,18810 12093,18844 12104,18878 12115,18912 12127,18945 12138,18978 12149,19010 12160,19043 12172,19075 12183,19106 12194,19138 12205,19169 12217,19200 12228,19231 12239,19261 12250,19291 12261,19321 12273,19351 12284,19380 12295,19409 12306,19438 12318,19467 12329,19495 12340,19523 12351,19551 12363,19579 12374,19606 12385,19633 12396,19660 12408,19687 12419,19713 12430,19739 12441,19765 12453,19791 12464,19816 12475,19842 12486,19867 12498,19891 12509,19916 12520,19940 12531,19964 12543,19988 12554,20012 12565,20036 12576,20059 12588,20082 12599,20105 12610,20127 12621,20150 12633,20172 12644,20194 12655,20216 12666,20238 12678,20259 12689,20280 12700,20301 12711,20322 12723,20343 12734,20363 12745,20384 12756,20404 12768,20424 12779,20443 12790,20463 12801,20482 12813,20501 12824,20520 12835,20539 12846,20558 12858,20576 12869,20595 12880,20613 12891,20631 12903,20649 12914,20666 12925,20684 12936,20701 12948,20718 12959,20735 12970,20752 12981,20769 12993,20785 13004,20802 13015,20818 13026,20834 13038,20850 13049,20866 13060,20881 13071,20897 13082,20912 13094,20927 13105,20942 13116,20957 13127,20972 13139,20987 13150,21001 13161,21015 13172,21030 13195,21058 13206,21071 13217,21085 13229,21099 13240,21112 13251,21125 13262,21139 13274,21152 13285,21165 13296,21177 13307,21190 13319,21203 13330,21215 13352,21239 13364,21252 13375,21264 13386,21275 13397,21287 13409,21299 13420,21310 13431,21322 13442,21333 13454,21344 13465,21355 13476,21366 13487,21377 13499,21388 13510,21399 13521,21409 13532,21420 13544,21430 13555,21440 13566,21450 13577,21460 13589,21470 13600,21480 13611,21490 13634,21509 13645,21519 13667,21537 13679,21547 13690,21556 13701,21565 13712,21574 13724,21583 13746,21600 13757,21609 13769,21617 13780,21626 13791,21634 13802,21642 13825,21659 13836,21667 13847,21675 13870,21690 13881,21698 13892,21706 13915,21721 13926,21728 13937,21736 13948,21743 13960,21750 13971,21757 13982,21765 13993,21772 14005,21779 14027,21792 14038,21799 14050,21806 14061,21812 14072,21819 14083,21825 14106,21838 14117,21844 14128,21851 14140,21857 14151,21863 14162,21869 14185,21881 14196,21887 14207,21893 14218,21898 14230,21904 14241,21910 14252,21915 14263,21921 14275,21926 14286,21932 14308,21943 14320,21948 14342,21958 14353,21963 14365,21968 14376,21973 14387,21978 14398,21983 14421,21993 14432,21998 14443,22003 14455,22007 14466,22012 14477,22017 14488,22021 14500,22026 14511,22030 14522,22034 14545,22043 14556,22047 14567,22052 14578,22056 14590,22060 14601,22064 14612,22068 14623,22072 14635,22076 14646,22080 14668,22088 14680,22092 14691,22096 14702,22100 14713,22103 14724,22107 14736,22111 14747,22114 14758,22118 14781,22125 14792,22128 14803,22132 14826,22139 14837,22142 14859,22149 14871,22152 14882,22155 14893,22158 14904,22161 14916,22165 14938,22171 14949,22174 14961,22177 14983,22183 14994,22186 15006,22188 15017,22191 15028,22194 15039,22197 15062,22202 15073,22205 15096,22210 15107,22213 15118,22216 15129,22218 15141,22221 15152,22223 15174,22228 15186,22231 15197,22233 15219,22238 15231,22240 15253,22245 15264,22247 15276,22250 15298,22254 15309,22256 15321,22259 15343,22263 15354,22265 15377,22269 15388,22271 15399,22273 15422,22277 15433,22279 15456,22283 15467,22285 15478,22287 15501,22291 15512,22293 15523,22294 15534,22296 15545,22298 15557,22300 15579,22303 15590,22305 15613,22308 15624,22310 15635,22312 15658,22315 15669,22316 15692,22320 15703,22321 15714,22323 15725,22324 15737,22326 15748,22327 15770,22330 15782,22332 15793,22333 15815,22336 15827,22337 15838,22339 15849,22340 15860,22341 15872,22343 15894,22345 15905,22347 15928,22349 15939,22350 15950,22352 15973,22354 15984,22355 16007,22358 16018,22359 16029,22360 16052,22362 16063,22364 16074,22365 16097,22367 16108,22368 16119,22369 16130,22370 16142,22371 16153,22372 16175,22374 16187,22375 16209,22377 16220,22378 16232,22379 16254,22381 16265,22382 16288,22384 16299,22385 16310,22386 16333,22387 16344,22388 16366,22390 16378,22391 16389,22392 16411,22393 16423,22394 16445,22396 16456,22397 16468,22397 16490,22399 16501,22400 16524,22401 16535,22402 16546,22403 16569,22404 16580,22405 16603,22406 16614,22407 16625,22408 16648,22409 16659,22410 16681,22411 16693,22412 16704,22412 16726,22414 16738,22414 16749,22415 16771,22416 16783,22417 16805,22418 16816,22418 16828,22419 16850,22420 16861,22421 16884,22422 16895,22422 16906,22423 16929,22424 16940,22424 16963,22425 16974,22426 16985,22426 17008,22427 17019,22428 17041,22429 17053,22429 17064,22430 17075,22430 17086,22431 17098,22431 17120,22432 17131,22432 17143,22433 17165,22434 17176,22434 17199,22435 17210,22435 17221,22436 17244,22436 17255,22437 17277,22438 17289,22438 17300,22438 17322,22439 17334,22439 17356,22440 17367,22441 17379,22441 17401,22442 17412,22442 17424,22442 17446,22443 17457,22443 17480,22444 17491,22444 17502,22445 17525,22445 17536,22445 17559,22446 17570,22446 17581,22447 17604,22447 17615,22447 17637,22448 17649,22448 17660,22449 17682,22449 17694,22449 17716,22450 17727,22450 17739,22450 17761,22451 17772,22451 17795,22452 17806,22452 17817,22452 17840,22453 17851,22453 17874,22453 17885,22453 17896,22454 17919,22454 17930,22454 17952,22455 17964,22455 17975,22455 17997,22456 18008,22456 18031,22456 18042,22456 18053,22457 18076,22457 18087,22457 18110,22457 18121,22458 18132,22458 18155,22458 18166,22458 18177,22459 18200,22459 18211,22459 18233,22459 18245,22460 18256,22460 18278,22460 18290,22460 18301,22460 18312,22460 18323,22461 18335,22461 18357,22461 18368,22461 18391,22461 18402,22462 18413,22462 18436,22462 18447,22462 18470,22462 18481,22463 18492,22463 18515,22463 18526,22463 18548,22463 18560,22463 18571,22464 18593,22464 18605,22464 18627,22464 18638,22464 18650,22464 18672,22465 18683,22465 18706,22465 18717,22465 18728,22465 18751,22465 18762,22465 18785,22466 18796,22466 18807,22466 18829,22466 18841,22466 18852,22466 18874,22466 18886,22466 18908,22467 18919,22467 18931,22467 18953,22467 18964,22467 18987,22467 18998,22467 19009,22467 19032,22468 19043,22468 19066,22468 19077,22468 19088,22468 19111,22468 19122,22468 19144,22468 19156,22468 19167,22468 19189,22469 19201,22469 19223,22469 19234,22469 19246,22469 19268,22469 19279,22469 19302,22469 19313,22469 19324,22469 19347,22470 19358,22470 19381,22470 19392,22470 19403,22470 19426,22470 19437,22470 19459,22470 19471,22470 19482,22470 19504,22470 19516,22470 19527,22470 19549,22471 19561,22471 19583,22471 19594,22471 19606,22471 19628,22471 19639,22471 19662,22471 19673,22471 19684,22471 19707,22471 19718,22471 19740,22471 19752,22471 19763,22471 19785,22471 19797,22472 19819,22472 19830,22472 19842,22472 19864,22472 19875,22472 19898,22472 19909,22472 19920,22472 19943,22472 19954,22472 19977,22472 19988,22472 19999,22472 20022,22472 20033,22472 20055,22472 20067,22472 20078,22472 20100,22472 20112,22472 20134,22473 20145,22473 20157,22473 20179,22473 20190,22473 20213,22473 20224,22473 20235,22473 20258,22473 20269,22473 20280,22473 20303,22473 20314,22473 20337,22473 20348,22473 20359,22473 20382,22473 20393,22473 20415,22473 20427,22473 20438,22473 20460,22473 20471,22473 20494,22473 20505,22473 20516,22473 20539,22473 20550,22473 20573,22474 20584,22474 20595,22474 20618,22474 20629,22474 20651,22474 20663,22474 20674,22474 20696,22474 20708,22474 20730,22474 20741,22474 20753,22474 20775,22474 20786,22474 20809,22474 20820,22474 20831,22474 20854,22474 20865,22474 20888,22474 20899,22474 20910,22474 20933,22474 20944,22474 20955,22474 20978,22474 20989,22474 21011,22474 21023,22474 21034,22474 21056,22474 21068,22474 21090,22474 21101,22474 21113,22474 21135,22474 21146,22474 21169,22474 21180,22474 21191,22474 21214,22474 21225,22474 21248,22474 21259,22474 21270,22474 21292,22474 21304,22474 21326,22474 21337,22474 21349,22475 21371,22475 21382,22475 21405,22475 21416,22475 21427,22475 21450,22475 21461,22475 21484,22475 21495,22475 21506,22475 21529,22475 21540,22475 21562,22475 21574,22475 21585,22475 21607,22475 21619,22475 21630,22475 21652,22475 21664,22475 21686,22475 21697,22475 21709,22475 21731,22475 21742,22475 21765,22475 21776,22475 21787,22475 21810,22475 21821,22475 21844,22475 21855,22475 21866,22475 21889,22475 21900,22475 21922,22475 21934,22475 21945,22475 21967,22475 21979,22475 22001,22475 22012,22475 22024,22475 22046,22475 22057,22475 22080,22475 22091,22475 22102,22475 22125,22475 22136,22475 22158,22475 22170,22475 22181,22475 22203,22475 22215,22475 22237,22475 22248,22475 22260,22475 22282,22475 22293,22475 22316,22475 22327,22475 22338,22475 22361,22475 22372,22475 22383,22475 22406,22475 22417,22475 22440,22475 22451,22475 22462,22475 22485,22475 22496,22475 22518,22475 22530,22475 22541,22475 22563,22475 22575,22475 22597,22475 22608,22475 22620,22475 22642,22475 22653,22475 22676,22475 22687,22475 22698,22475 22721,22475 22732,22475 22755,22475 22766,22475 22777,22475 22800,22475 22811,22475 22833,22475 22845,22475 22856,22475 22878,22475 22890,22475 22912,22475 22923,22475 22934,22475 22957,22475 22968,22475 22991,22475 23002,22475 23013,22475 23036,22475 23047,22475 23058,22475 23081,22475 23092,22475 23114,22475 23126,22475 23137,22475 23159,22475 23171,22475 23193,22475 23204,22475 23216,22475 23238,22475 23249,22475 23272,22475 23283,22475 23294,22475 23317,22475 23328,22475 23351,22475 23362,22475 23373,22475 23396,22475 23407,22475 23429,22475 23441,22475 23452,22475 23473,22475 23485,22475 23507,22475 23518,22475 23530,22475 23552,22475 23563,22475 23586,22475 23597,22475 23608,22475 23631,22475 23642,22475 23665,22475 23676,22475 23687,22475 23710,22475 23721,22475 23732,22475 23754,22475 23766,22475 23788,22475 23799,22475 23811,22475 23833,22475 23844,22475 23867,22475 23878,22475 23889,22475 23912,22475 23923,22475 23946,22475 23957,22475 23968,22475 23991,22475 24002,22475 24024,22475 24036,22475 24047,22475 24069,22475 24081,22475 24103,22475 24114,22475 24126,22475 24148,22475 24159,22475 24182,22475 24193,22475 24204,22475 24227,22475 24238,22475 24261,22475 24272,22475 24283,22475 24306,22475 24317,22475 24339,22475 24351,22475 24362,22475 24384,22475 24396,22475 24418,22475 24429,22475 24441,22475 24463,22475 24474,22475 24486,22475 24508,22475 24519,22475 24542,22475 24553,22475 24564,22475 24587,22475 24598,22475 24620,22475 24632,22475 24643,22475 24665,22475 24677,22475 24699,22475 24710,22475 24722,22475 24744,22475 24755,22475 24778,22475 24789,22475 24800,22475 24823,22475 24834,22475 24857,22475 24868,22475 24879,22475 24902,22475 24913,22475 24935,22475 24947,22475 24958,22475 24980,22475 24992,22475 25014,22475 25025,22475 25037,22475 25059,22475 25070,22475 25093,22475 25104,22475 25115,22475 25138,22475 25149,22475 25160,22475 25183,22475 25194,22475 25217,22475 25228,22475 25239,22475 25262,22475 25273,22475 25295,22475 25307,22475 25318,22475 25340,22475 25352,22475 25374,22475 25385,22475 25396,22475 25419,22475 25430,22475 25453,22475 25464,22475 25475,22475 25498,22475 25509,22475 25531,22475 25543,22475 25554,22475 25576,22475 25588,22475 25610,22475 25621,22475 25633,22475 25655,22475 25666,22475 25689,22475 25700,22475 25711,22475 25734,22475 25745,22475 25768,22475 25779,22475 25790,22475 25813,22475 25824,22475 25846,22475 25858,22475 25869,22475 25891,22475 25903,22475 25914,22475 25936,22475 25948,22475 25970,22475 25981,22475 25993,22475 26015,22475 26026,22475 26049,22475 26060,22475 26071,22475 26094,22475 26105,22475 26128,22475 26139,22475 26150,22475 26173,22475 26184,22475 26206,22475 26217,22475 26229,22475 26251,22475 26262,22475 26285,22475 26296,22475 26307,22475 26330,22475 26341,22475 26364,22475 26375,22475 26386,22475 26409,22475 26420,22475 26442,22475 26454,22475 26465,22475 26487,22475 26499,22475 26521,22475 26532,22475 26544,22475 26566,22475 26577,22475 26589,22475 26611,22475 26622,22475 26645,22475 26656,22475 26667,22475 26690,22475 26701,22475 26724,22475 26735,22475 26746,22475 26769,22475 26780,22475 26802,22475 26814,22475 26825,22475 26847,22475 26859,22475 26881,22475 26892,22475 26904,22475 26926,22475 26937,22475 26960,22475 26971,22475 26982,22475 27005,22475 27016,22475 27038,22475 27050,22475 27061,22475 27083,22475 27095,22475 27117,22475 27128,22475 27140,22475 27162,22475 27173,22475 27196,22475 27207,22475 27218,22475 27241,22475 27252,22475 27263,22475 27286,22475 27297,22475 27320,22475 27331,22475 27342,22475 27365,22475 27376,22475 27398,22475 27410,22475 27421,22475 27443,22475 27455,22475 27477,22475 27488,22475 27500,22475 27522,22475 27533,22475 27556,22475 27567,22475 27578,22475 27601,22475 27612,22475 27635,22475 27646,22475 27657,22475 27680,22475 27691,22475 27713,22475 27725,22475 27736,22475 27758,22475 27770,22475 27792,22475 27803,22475 27815,22475 27837,22475 27848,22475 27871,22475 27882,22475 27893,22475 27916,22475 27927,22475 27949,22475 27961,22475 27972,22475 27994,22475 28006,22475 28017,22475 28039,22475 28051,22475 28073,22475 28084,22475 28096,22475 28118,22475 28129,22475 28152,22475 28163,22475 28174,22475 28197,22475 28208,22475 28231,22475 28242,22475 28253,22475 28276,22475 28287,22475 28309,22475 28321,22475 28332,22475 28354,22475 28366,22475 28388,22475 28399,22475 28411,22475 28433,22475 28444,22475 28467,22475 28478,22475 28489,22475 28512,22475 28523,22475 28546,22475 28557,22475 28568,22475 28591,22475 28602,22475 28624,22475 28636,22475 28647,22475 28669,22475 28680,22475 28692,22475 28714,22475 28725,22475 28748,22475 28759,22475 28770,22475 28793,22475 28804,22475 28827,22475 28838,22475 28849,22475 28872,22475 28883,22475 28905,22475 28917,22475 28928,22475 28950,22475 28962,22475 28984,22475 28995,22475 29007,22475 29029,22475 29040,22475 29063,22475 29074,22475 29085,22475 29108,22475 29119,22475 29142,22475 29153,22475 29164,22475 29187,22475 29198,22475 29220,22475 29232,22475 29243,22475 29265,22475 29277,22475 29299,22475 29310,22475 29322,22475 29344,22475 29355,22475 29367,22475 29389,22475 29400,22475 29423,22475 29434,22475 29445,22475 29468,22475 29479,22475 29501,22475 29513,22475 29524,22475 29546,22475 29558,22475 29580,22475 29591,22475 29603,22475 29625,22475 29636,22475 29659,22475 29670,22475 29681,22475 29704,22475 29715,22475 29738,22475 29749,22475 29760,22475 29783,22475 29794,22475 29816,22475 29828,22475 29839,22475 29861,22475 29873,22475 29895,22475 29906,22475 29918,22475 29940,22475 29951,22475 29974,22475 29985,22475 29996,22475 30019,22475 30030,22475 30053,22475 30064,22475 30075,22475 30098,22475 30109,22475 30120,22475 30143,22475 30154,22475 30176,22475 30188,22475 30199,22475 30221,22475 30233,22475 30255,22475 30266,22475 30278,22475 30300,22475 30311,22475 30334,22475 30345,22475 30356,22475 30379,22475 30390,22475 30412,22475 30424,22475 30435,22475 30457,22475 30469,22475 30491,22475 30502,22475 30514,22475 30536,22475 30547,22475 30570,22475 30581,22475 30592,22475 30615,22475 30626,22475 30649,22475 30660,22475 30671,22475 30694,22475 30705,22475 30727,22475 30739,22475 30750,22475 30772,22475 30784,22475 30795,22475 30817,22475 30829,22475 30851,22475 30862,22475 30874,22475 30896,22475 30907,22475 30930,22475 30941,22475 30952,22475 30975,22475 30986,22475 31009,22475 31020,22475 31031,22475 31054,22475 31065,22475 31087,22475 31099,22475 31110,22475 31132,22475 31143,22475 31166,22475 31177,22475 31188,22475 31211,22475 31222,22475 31245,22475 31256,22475 31267,22475 31290,22475 31301,22475 31323,22475 31335,22475 31346,22475 31368,22475 31380,22475 31402,22475 31413,22475 31425,22475 31447,22475 31458,22475 31470,22475 31492,22475 31503,22475 31526,22475 31537,22475 31548,22475 31571,22475 31582,22475 31605,22475 31616,22475 31627,22475 31650,22475 31661,22475 31683,22475 31695,22475 31706,22475 31728,22475 31740,22475 31762,22475 31773,22475 31785,22475 31807,22475 31818,22475 31841,22475 31852,22475 31863,22475 31886,22475 31897,22475 31920,22475 31931,22475 31942,22475 31964,22475 31976,22475 31998,22475 32009,22475 32021,22475 32043,22475 32054,22475 32077,22475 32088,22475 32099,22475 32122,22475 32133,22475 32156,22475 32167,22475 32178,22475 32201,22475 32212,22475 32223,22475 32246,22475 32257,22475 32279,22475 32291,22475 32302,22475 32324,22475 32336,22475 32358,22475 32369,22475 32381,22475 32403,22475 32414,22475 32437,22475 32448,22475 32459,22475 32482,22475 32493,22475 32516,22475 32527,22475 32538,22475 32561,22475 32572,22475 32594,22475 32606,22475 32617,22475 32639,22475 32651,22475 32673,22475 32684,22475 32696,22475 32718,22475 32729,22475 32752,22475 32763,22475 32774,22475 32797,22475 32808,22475 32830,22475 32842,22475 32853,22475 32875,22475 32887,22475 32898,22475 32920,22475 32932,22475 32954,22475 32965,22475 32977,22475 32999,22475 33010,22475 33033,22475 33044,22475 33055,22475 33078,22475 33089,22475 33112,22475 33123,22475 33134,22475 33157,22475 33168,22475 33190,22475 33202,22475 33213,22475 33235,22475 33247,22475 33269,22475 33280,22475 33292,22475 33314,22475 33325,22475 33348,22475 33359,22475 33370,22475 33393,22475 33404,22475 33427,22475 33438,22475 33449,22475 33472,22475 33483,22475 33505,22475 33517,22475 33528,22475 33550,22475 33562,22475 33573,22475 33595,22475 33606,22475 33629,22475 33640,22475 33651,22475 33674,22475 33685,22475 33708,22475 33719,22475 33730,22475 33753,22475 33764,22475 33786,22475 33798,22475 33809,22475 33831,22475 33843,22475 33865,22475 33876,22475 33888,22475 33910,22475 33921,22475 33944,22475 33955,22475 33966,22475 33989,22475 34000,22475 34023,22475 34034,22475 34045,22475 34068,22475 34079,22475 34101,22475 34113,22475 34124,22475 34146,22475 34158,22475 34180,22475 34191,22475 34203,22475 34225,22475 34236,22475 34259,22475 34270,22475 34281,22475 34304,22475 34315,22475 34326,22475 34349,22475 34360,22475 34383,22475 34394,22475 34405,22475 34427,22475 34439,22475 34461,22475 34472,22475 34484,22475 34506,22475 34517,22475 34540,22475 34551,22475 34562,22475 34585,22475 34596,22475 34619,22475 34630,22475 34641,22475 34664,22475 34675,22475 34697,22475 34709,22475 34720,22475 34742,22475 34754,22475 34776,22475 34787,22475 34799,22475 34821,22475 34832,22475 34855,22475 34866,22475 34877,22475 34900,22475 34911,22475 34934,22475 34945,22475 34956,22475 34979,22475 34990,22476 35001,22476 35024,22476 35035,22476 35057,22476 35069,22476 35080,22476 35102,22476 35114,22476 35136,22476 35147,22476 35159,22476 35181,22476 35192,22476 35215,22476 35226,22476 35237,22476 35260,22476 35271,22476 35293,22476 35305,22476 35316,22476 35338,22476 35350,22476 35372,22476 35383,22476 35395,22476 35417,22476 35428,22476 35451,22476 35462,22476 35473,22476 35496,22476 35507,22476 35530,22476 35541,22476 35552,22476 35575,22476 35586,22476 35608,22476 35620,22476 35631,22476 35653,22476 35665,22476 35687,22476 35698,22476 35710,22476 35732,22476 35743,22476 35755,22476 35777,22476 35788,22476 35811,22476 35822,22476 35833,22476 35856,22476 35867,22476 35890,22476 35901,22476 35912,22476 35935,22476 35946,22476 35968,22476 35980,22476 35991,22476 36013,22476 36025,22476 36047,22476 36058,22476 36069,22476 36092,22476 36103,22476 36126,22476 36137,22476 36148,22476 36171,22476 36182,22476 36204,22476 36216,22476 36227,22476 36249,22476 36261,22476 36283,22476 36294,22476 36306,22476 36328,22476 36339,22476 36362,22476 36373,22476 36384,22476 36407,22476 36418,22476 36429,22476 36452,22476 36463,22476 36486,22476 36497,22476 36508,22476 36531,22476 36542,22476 36564,22476 36576,22476 36587,22476 36609,22476 36621,22476 36643,22476 36654,22476 36666,22476 36688,22476 36699,22476 36722,22476 36733,22476 36744,22476 36767,22476 36778,22476 36801,22476 36812,22476 36823,22476 36846,22476 36857,22476 36879,22476 36890,22476 36902,22476 36924,22476 36935,22476 36958,22476 36969,22476 36980,22476 37003,22476 37014,22476 37037,22476 37048,22476 37059,22476 37082,22476 37093,22476 37104,22476 37127,22476 37138,22476 37160,22476 37172,22476 37183,22476 37205,22476 37217,22476 37239,22476 37250,22476 37262,22476 37284,22476 37295,22476 37318,22476 37329,22476 37340,22476 37363,22476 37374,22476 37397,22476 37408,22476 37419,22476 37442,22476 37453,22476 37475,22476 37487,22476 37498,22476 37520,22476 37532,22476 37554,22476 37565,22476 37577,22476 37599,22476 37610,22476 37633,22476 37644,22476 37655,22476 37678,22476 37689,22476 37711,22476 37723,22476 37734,22476 37756,22476 37768,22476"/>
 <text class="TextShape"><tspan class="TextParagraph" font-family="Liberation Sans, sans-serif" font-size="353px" font-weight="400"><tspan class="TextPosition" x="3959" y="23044"><tspan fill="rgb(0,0,0)" stroke="none">0</tspan></tspan></tspan></text>
 <text class="TextShape"><tspan class="TextParagraph" font-family="Liberation Sans, sans-serif" font-size="353px" font-weight="400"><tspan class="TextPosition" x="9397" y="23044"><tspan fill="rgb(0,0,0)" stroke="none">500</tspan></tspan></tspan></text>
 <text class="TextShape"><tspan class="TextParagraph" font-family="Liberation Sans, sans-serif" font-size="353px" font-weight="400"><tspan class="TextPosition" x="14927" y="23044"><tspan fill="rgb(0,0,0)" stroke="none">1000</tspan></tspan></tspan></text>
 <text class="TextShape"><tspan class="TextParagraph" font-family="Liberation Sans, sans-serif" font-size="353px" font-weight="400"><tspan class="TextPosition" x="20550" y="23044"><tspan fill="rgb(0,0,0)" stroke="none">1500</tspan></tspan></tspan></text>
 <text class="TextShape"><tspan class="TextParagraph" font-family="Liberation Sans, sans-serif" font-size="353px" font-weight="400"><tspan class="TextPosition" x="26174" y="23044"><tspan fill="rgb(0,0,0)" stroke="none">2000</tspan></tspan></tspan></text>
 <text class="TextShape"><tspan class="TextParagraph" font-family="Liberation Sans, sans-serif" font-size="353px" font-weight="400"><tspan class="TextPosition" x="31797" y="23044"><tspan fill="rgb(0,0,0)" stroke="none">2500</tspan></tspan></tspan></text>
 <text class="TextShape"><tspan class="TextParagraph" font-family="Liberation Sans, sans-serif" font-size="353px" font-weight="400"><tspan class="TextPosition" x="37420" y="23044"><tspan fill="rgb(0,0,0)" stroke="none">3000</tspan></tspan></tspan></text>
 <text class="TextShape"><tspan class="TextParagraph" font-family="Liberation Sans, sans-serif" font-size="353px" font-weight="400"><tspan class="TextPosition" x="43044" y="23044"><tspan fill="rgb(0,0,0)" stroke="none">3500</tspan></tspan></tspan></text>
 <text class="TextShape"><tspan class="TextParagraph" font-family="Liberation Sans, sans-serif" font-size="353px" font-weight="400"><tspan class="TextPosition" x="3617" y="22597"><tspan fill="rgb(0,0,0)" stroke="none">0</tspan></tspan></tspan></text>
 <text class="TextShape"><tspan class="TextParagraph" font-family="Liberation Sans, sans-serif" font-size="353px" font-weight="400"><tspan class="TextPosition" x="2135" y="20049"><tspan fill="rgb(0,0,0)" stroke="none">500000000</tspan></tspan></tspan></text>
 <text class="TextShape"><tspan class="TextParagraph" font-family="Liberation Sans, sans-serif" font-size="353px" font-weight="400"><tspan class="TextPosition" x="1950" y="17501"><tspan fill="rgb(0,0,0)" stroke="none">1000000000</tspan></tspan></tspan></text>
 <text class="TextShape"><tspan class="TextParagraph" font-family="Liberation Sans, sans-serif" font-size="353px" font-weight="400"><tspan class="TextPosition" x="1950" y="14954"><tspan fill="rgb(0,0,0)" stroke="none">1500000000</tspan></tspan></tspan></text>
 <text class="TextShape"><tspan class="TextParagraph" font-family="Liberation Sans, sans-serif" font-size="353px" font-weight="400"><tspan class="TextPosition" x="1950" y="12406"><tspan fill="rgb(0,0,0)" stroke="none">2000000000</tspan></tspan></tspan></text>
 <text class="TextShape"><tspan class="TextParagraph" font-family="Liberation Sans, sans-serif" font-size="353px" font-weight="400"><tspan class="TextPosition" x="1950" y="9858"><tspan fill="rgb(0,0,0)" stroke="none">2500000000</tspan></tspan></tspan></text>
 <text class="TextShape"><tspan class="TextParagraph" font-family="Liberation Sans, sans-serif" font-size="353px" font-weight="400"><tspan class="TextPosition" x="1950" y="7311"><tspan fill="rgb(0,0,0)" stroke="none">3000000000</tspan></tspan></tspan></text>
 <text class="TextShape"><tspan class="TextParagraph" font-family="Liberation Sans, sans-serif" font-size="353px" font-weight="400"><tspan class="TextPosition" x="1950" y="4763"><tspan fill="rgb(0,0,0)" stroke="none">3500000000</tspan></tspan></tspan></text>
 <text class="TextShape"><tspan class="TextParagraph" font-family="Liberation Sans, sans-serif" font-size="353px" font-weight="400"><tspan class="TextPosition" x="1950" y="2215"><tspan fill="rgb(0,0,0)" stroke="none">4000000000</tspan></tspan></tspan></text>
 <text class="TextShape"><tspan class="TextParagraph" font-family="Liberation Sans, sans-serif" font-size="459px" font-weight="400"><tspan class="TextPosition" x="22981" y="1162"><tspan fill="rgb(0,0,0)" stroke="none">d100</tspan></tspan></tspan></text>
 <path fill="none" stroke="rgb(0,69,134)" stroke-width="80" stroke-linejoin="round" d="M 44840,12297 L 45640,12297"/>
 <text class="TextShape"><tspan class="TextParagraph" font-family="Liberation Sans, sans-serif" font-size="353px" font-weight="400"><tspan class="TextPosition" x="45740" y="12416"><tspan fill="rgb(0,0,0)" stroke="none">count</tspan></tspan></tspan></text>
 <text class="TextShape"><tspan class="TextParagraph" font-family="Liberation Sans, sans-serif" font-size="318px" font-weight="400"><tspan class="TextPosition" x="22365" y="24002"><tspan fill="rgb(0,0,0)" stroke="none">Length</tspan></tspan></tspan></text>
 <text class="TextShape" transform="rotate(-90 837 12947)"><tspan class="TextParagraph" font-family="Liberation Sans, sans-serif" font-size="318px" font-weight="400"><tspan class="TextPosition" x="837" y="12947"><tspan fill="rgb(0,0,0)" stroke="none">Count</tspan></tspan></tspan></text>
</svg>