<?xml version="1.0" encoding="UTF-8"?>
<!DOCTYPE svg PUBLIC "-//W3C//DTD SVG 1.1//EN" "http://www.w3.org/Graphics/SVG/1.1/DTD/svg11.dtd">
<svg width="439mm" height="214mm" viewBox="0 0 43900 21400" version="1.1" xmlns="http://www.w3.org/2000/svg" xmlns:xlink="http://www.w3.org/1999/xlink" stroke-width="28.222" stroke-linejoin="round" xml:space="preserve">
 <path fill="rgb(255,255,255)" stroke="none" d="M 21935,21436 L 0,21436 0,0 43870,0 43870,21436 21935,21436 Z"/>
 <path fill="none" stroke="rgb(179,179,179)" stroke-linejoin="round" d="M 21444,19380 L 3171,19380 3171,1971 39716,1971 39716,19380 21444,19380 Z"/>
 <path fill="none" stroke="rgb(179,179,179)" stroke-linejoin="round" d="M 39716,19379 L 3171,19379"/>
 <path fill="none" stroke="rgb(179,179,179)" stroke-linejoin="round" d="M 39716,16891 L 3171,16891"/>
 <path fill="none" stroke="rgb(179,179,179)" stroke-linejoin="round" d="M 39716,14404 L 3171,14404"/>
 <path fill="none" stroke="rgb(179,179,179)" stroke-linejoin="round" d="M 39716,11917 L 3171,11917"/>
 <path fill="none" stroke="rgb(179,179,179)" stroke-linejoin="round" d="M 39716,9431 L 3171,9431"/>
 <path fill="none" stroke="rgb(179,179,179)" stroke-linejoin="round" d="M 39716,6944 L 3171,6944"/>
 <path fill="none" stroke="rgb(179,179,179)" stroke-linejoin="round" d="M 39716,4457 L 3171,4457"/>
 <path fill="none" stroke="rgb(179,179,179)" stroke-linejoin="round" d="M 39716,1970 L 3171,1970"/>
 <path fill="none" stroke="rgb(179,179,179)" stroke-linejoin="round" d="M 3171,19529 L 3171,19379"/>
 <path fill="none" stroke="rgb(179,179,179)" stroke-linejoin="round" d="M 3171,19529 L 3171,19379"/>
 <path fill="none" stroke="rgb(179,179,179)" stroke-linejoin="round" d="M 7739,19529 L 7739,19379"/>
 <path fill="none" stroke="rgb(179,179,179)" stroke-linejoin="round" d="M 7739,19529 L 7739,19379"/>
 <path fill="none" stroke="rgb(179,179,179)" stroke-linejoin="round" d="M 12307,19529 L 12307,19379"/>
 <path fill="none" stroke="rgb(179,179,179)" stroke-linejoin="round" d="M 12307,19529 L 12307,19379"/>
 <path fill="none" stroke="rgb(179,179,179)" stroke-linejoin="round" d="M 16875,19529 L 16875,19379"/>
 <path fill="none" stroke="rgb(179,179,179)" stroke-linejoin="round" d="M 16875,19529 L 16875,19379"/>
 <path fill="none" stroke="rgb(179,179,179)" stroke-linejoin="round" d="M 21444,19529 L 21444,19379"/>
 <path fill="none" stroke="rgb(179,179,179)" stroke-linejoin="round" d="M 21444,19529 L 21444,19379"/>
 <path fill="none" stroke="rgb(179,179,179)" stroke-linejoin="round" d="M 26011,19529 L 26011,19379"/>
 <path fill="none" stroke="rgb(179,179,179)" stroke-linejoin="round" d="M 26011,19529 L 26011,19379"/>
 <path fill="none" stroke="rgb(179,179,179)" stroke-linejoin="round" d="M 30579,19529 L 30579,19379"/>
 <path fill="none" stroke="rgb(179,179,179)" stroke-linejoin="round" d="M 30579,19529 L 30579,19379"/>
 <path fill="none" stroke="rgb(179,179,179)" stroke-linejoin="round" d="M 35147,19529 L 35147,19379"/>
 <path fill="none" stroke="rgb(179,179,179)" stroke-linejoin="round" d="M 35147,19529 L 35147,19379"/>
 <path fill="none" stroke="rgb(179,179,179)" stroke-linejoin="round" d="M 39716,19529 L 39716,19379"/>
 <path fill="none" stroke="rgb(179,179,179)" stroke-linejoin="round" d="M 39716,19529 L 39716,19379"/>
 <path fill="none" stroke="rgb(179,179,179)" stroke-linejoin="round" d="M 3171,19379 L 39716,19379"/>
 <path fill="none" stroke="rgb(179,179,179)" stroke-linejoin="round" d="M 3021,19379 L 3171,19379"/>
 <path fill="none" stroke="rgb(179,179,179)" stroke-linejoin="round" d="M 3021,19379 L 3171,19379"/>
 <path fill="none" stroke="rgb(179,179,179)" stroke-linejoin="round" d="M 3021,16891 L 3171,16891"/>
 <path fill="none" stroke="rgb(179,179,179)" stroke-linejoin="round" d="M 3021,16891 L 3171,16891"/>
 <path fill="none" stroke="rgb(179,179,179)" stroke-linejoin="round" d="M 3021,14404 L 3171,14404"/>
 <path fill="none" stroke="rgb(179,179,179)" stroke-linejoin="round" d="M 3021,14404 L 3171,14404"/>
 <path fill="none" stroke="rgb(179,179,179)" stroke-linejoin="round" d="M 3021,11917 L 3171,11917"/>
 <path fill="none" stroke="rgb(179,179,179)" stroke-linejoin="round" d="M 3021,11917 L 3171,11917"/>
 <path fill="none" stroke="rgb(179,179,179)" stroke-linejoin="round" d="M 3021,9431 L 3171,9431"/>
 <path fill="none" stroke="rgb(179,179,179)" stroke-linejoin="round" d="M 3021,9431 L 3171,9431"/>
 <path fill="none" stroke="rgb(179,179,179)" stroke-linejoin="round" d="M 3021,6944 L 3171,6944"/>
 <path fill="none" stroke="rgb(179,179,179)" stroke-linejoin="round" d="M 3021,6944 L 3171,6944"/>
 <path fill="none" stroke="rgb(179,179,179)" stroke-linejoin="round" d="M 3021,4457 L 3171,4457"/>
 <path fill="none" stroke="rgb(179,179,179)" stroke-linejoin="round" d="M 3021,4457 L 3171,4457"/>
 <path fill="none" stroke="rgb(179,179,179)" stroke-linejoin="round" d="M 3021,1970 L 3171,1970"/>
 <path fill="none" stroke="rgb(179,179,179)" stroke-linejoin="round" d="M 3021,1970 L 3171,1970"/>
 <path fill="none" stroke="rgb(179,179,179)" stroke-linejoin="round" d="M 3171,19379 L 3171,1970"/>
 <path fill="none" stroke="rgb(0,69,134)" stroke-width="80" stroke-linejoin="round" d="M 3171,19379 L 3193,19379 3216,19379 3239,19379 3262,19379 3285,19379 3308,19379 3330,19379 3353,19379 3376,19379 3399,19379 3422,19379 3445,19379 3467,19379 3490,19379 3513,19379 3536,19379 3559,19379 3582,19379 3604,19379 3627,19379 3650,19379 3673,19379 3696,19379 3719,19379 3742,19379 3764,19379 3787,19379 3810,19379 3833,19379 3856,19379 3879,19379 3901,19379 3924,19379 3947,19379 3970,19379 3993,19379 4016,19379 4038,19379 4061,19379 4084,19379 4107,19379 4130,19379 4153,19379 4176,19379 4198,19379 4221,19379 4244,19379 4267,19379 4290,19379 4313,19379 4335,19379 4358,19379 4381,19379 4404,19379 4427,19379 4450,19379 4472,19379 4495,19379 4518,19379 4541,19379 4564,19379 4587,19379 4609,19379 4632,19379 4655,19379 4678,19379 4701,19379 4724,19379 4747,19379 4769,19379 4792,19379 4815,19379 4838,19379 4861,19379 4884,19379 4906,19379 4929,19379 4952,19379 4975,19379 4998,19379 5021,19379 5043,19379 5066,19379 5089,19379 5112,19379 5135,19379 5158,19379 5181,19379 5203,19379 5226,19379 5249,19379 5272,19379 5295,19379 5318,19379 5340,19379 5363,19379 5386,19379 5409,19379 5432,19379 5455,19379 5477,19379 5500,19379 5523,19379 5546,19379 5569,19379 5592,19379 5615,19379 5637,19379 5660,19379 5683,19379 5706,19379 5729,19379 5752,19379 5774,19379 5797,19379 5820,19379 5843,19379 5866,19379 5889,19379 5911,19379 5934,19379 5957,19379 5980,19379 6003,19379 6026,19379 6048,19379 6071,19379 6094,19379 6117,19379 6140,19379 6163,19379 6186,19379 6208,19379 6231,19379 6254,19379 6277,19379 6300,19379 6323,19379 6345,19379 6368,19379 6391,19379 6414,19379 6437,19379 6460,19379 6482,19379 6505,19379 6528,19379 6551,19379 6574,19379 6597,19379 6620,19379 6642,19379 6665,19379 6688,19379 6711,19379 6734,19379 6757,19379 6779,19379 6802,19379 6825,19379 6848,19379 6871,19379 6894,19379 6916,19379 6939,19379 6962,19379 6985,19379 7008,19379 7031,19379 7054,19379 7076,19379 7099,19379 7122,19379 7145,19379 7168,19379 7191,19379 7213,19379 7236,19379 7259,19379 7282,19379 7305,19379 7328,19379 7350,19379 7373,19379 7396,19379 7419,19379 7442,19379 7465,19379 7487,19379 7510,19379 7533,19379 7556,19379 7579,19379 7602,19379 7625,19379 7647,19379 7670,19379 7693,19379 7716,19379 7739,19379 7762,19379 7784,19379 7807,19379 7830,19379 7853,19379 7876,19379 7899,19379 7921,19379 7944,19379 7967,19379 7990,19379 8013,19379 8036,19379 8059,19379 8081,19379 8104,19379 8127,19379 8150,19379 8173,19379 8196,19379 8218,19379 8241,19379 8264,19379 8287,19379 8310,19379 8333,19379 8355,19379 8378,19379 8401,19379 8424,19379 8447,19379 8470,19379 8493,19379 8515,19379 8538,19379 8561,19379 8584,19379 8607,19379 8630,19379 8652,19379 8675,19379 8698,19379 8721,19379 8744,19379 8767,19379 8789,19379 8812,19379 8835,19379 8858,19379 8881,19379 8904,19379 8926,19379 8949,19379 8972,19379 8995,19379 9018,19379 9041,19379 9064,19379 9086,19379 9109,19379 9132,19379 9155,19379 9178,19379 9201,19379 9223,19379 9246,19379 9269,19379 9292,19379 9315,19379 9338,19379 9360,19379 9383,19379 9406,19379 9429,19379 9452,19379 9475,19379 9498,19379 9520,19379 9543,19379 9566,19379 9589,19379 9612,19379 9635,19379 9657,19379 9680,19379 9703,19379 9726,19379 9749,19379 9772,19379 9794,19379 9817,19379 9840,19379 9863,19379 9886,19374 9909,19374 9932,19374 9954,19374 9977,19374 10000,19374 10023,19374 10046,19374 10069,19374 10091,19374 10114,19374 10137,19369 10160,19369 10183,19369 10206,19369 10228,19369 10251,19364 10274,19364 10297,19364 10320,19364 10343,19359 10365,19359 10388,19359 10411,19354 10434,19354 10457,19349 10480,19349 10503,19344 10525,19344 10548,19339 10571,19339 10594,19334 10617,19329 10640,19329 10662,19324 10685,19319 10708,19314 10731,19309 10754,19304 10777,19299 10799,19294 10822,19289 10845,19279 10868,19274 10891,19269 10914,19259 10937,19254 10959,19244 10982,19234 11005,19224 11028,19214 11051,19204 11074,19194 11096,19185 11119,19170 11142,19160 11165,19145 11188,19135 11211,19120 11233,19105 11256,19090 11279,19070 11302,19055 11325,19035 11348,19020 11371,19000 11393,18981 11416,18961 11439,18936 11462,18916 11485,18891 11508,18866 11530,18841 11553,18816 11576,18787 11599,18762 11622,18732 11645,18702 11667,18672 11690,18637 11713,18607 11736,18573 11759,18538 11782,18498 11804,18463 11827,18423 11850,18384 11873,18344 11896,18304 11919,18259 11942,18215 11964,18170 11987,18120 12010,18075 12033,18025 12056,17976 12079,17921 12101,17871 12124,17817 12147,17762 12170,17702 12193,17642 12216,17588 12238,17523 12261,17463 12284,17399 12307,17334 12330,17269 12353,17200 12376,17135 12398,17065 12421,16991 12444,16921 12467,16847 12490,16772 12513,16697 12535,16618 12558,16538 12581,16459 12604,16379 12627,16294 12650,16210 12672,16125 12695,16041 12718,15956 12741,15867 12764,15777 12787,15688 12810,15593 12832,15504 12855,15409 12878,15315 12901,15215 12924,15121 12947,15021 12969,14922 12992,14822 13015,14723 13038,14623 13061,14519 13084,14414 13106,14310 13129,14205 13152,14101 13175,13991 13198,13887 13221,13777 13243,13668 13266,13559 13289,13449 13312,13340 13335,13230 13358,13121 13381,13006 13403,12897 13426,12783 13449,12668 13472,12554 13495,12444 13518,12330 13540,12216 13563,12101 13586,11987 13609,11867 13632,11753 13655,11639 13677,11524 13700,11410 13723,11295 13746,11181 13769,11061 13792,10947 13815,10833 13837,10718 13860,10605 13883,10490 13906,10376 13929,10262 13952,10147 13974,10038 13997,9923 14020,9809 14043,9700 14066,9590 14089,9476 14111,9366 14134,9257 14157,9147 14180,9038 14203,8929 14226,8824 14249,8715 14271,8610 14294,8506 14317,8401 14340,8297 14363,8192 14386,8088 14408,7988 14431,7889 14454,7789 14477,7690 14500,7590 14523,7496 14545,7401 14568,7302 14591,7212 14614,7118 14637,7023 14660,6934 14682,6844 14705,6755 14728,6670 14751,6586 14774,6496 14797,6417 14820,6332 14842,6252 14865,6168 14888,6088 14911,6014 14934,5934 14957,5859 14979,5785 15002,5715 15025,5641 15048,5571 15071,5501 15094,5437 15116,5367 15139,5302 15162,5238 15185,5178 15208,5118 15231,5059 15254,4999 15276,4939 15299,4884 15322,4830 15345,4780 15368,4725 15391,4676 15413,4626 15436,4581 15459,4531 15482,4486 15505,4447 15528,4402 15550,4362 15573,4322 15596,4283 15619,4248 15642,4213 15665,4178 15688,4143 15710,4113 15733,4084 15756,4054 15779,4029 15802,4004 15825,3979 15847,3954 15870,3929 15893,3909 15916,3890 15939,3875 15962,3855 15984,3840 16007,3825 16030,3815 16053,3800 16076,3790 16099,3780 16121,3770 16144,3765 16167,3760 16190,3755 16213,3750 16236,3750 16259,3750 16281,3750 16304,3750 16327,3750 16350,3755 16373,3760 16396,3765 16418,3770 16441,3780 16464,3790 16487,3800 16510,3810 16533,3820 16555,3835 16578,3850 16601,3865 16624,3880 16647,3895 16670,3914 16693,3934 16715,3954 16738,3974 16761,3994 16784,4019 16807,4039 16830,4064 16852,4089 16875,4113 16898,4143 16921,4168 16944,4198 16967,4228 16989,4258 17012,4288 17035,4317 17058,4352 17081,4387 17104,4417 17127,4452 17149,4486 17172,4526 17195,4561 17218,4596 17241,4636 17264,4676 17286,4715 17309,4755 17332,4795 17355,4835 17378,4874 17401,4919 17423,4959 17446,5004 17469,5049 17492,5093 17515,5138 17538,5183 17560,5228 17583,5272 17606,5322 17629,5367 17652,5417 17675,5461 17698,5511 17720,5561 17743,5611 17766,5660 17789,5710 17812,5760 17835,5810 17857,5859 17880,5914 17903,5964 17926,6019 17949,6068 17972,6123 17994,6173 18017,6227 18040,6282 18063,6337 18086,6392 18109,6446 18132,6496 18154,6551 18177,6611 18200,6665 18223,6720 18246,6775 18269,6829 18291,6884 18314,6944 18337,6999 18360,7053 18383,7113 18406,7168 18428,7227 18451,7282 18474,7337 18497,7396 18520,7451 18543,7511 18566,7566 18588,7625 18611,7685 18634,7740 18657,7799 18680,7854 18703,7914 18725,7973 18748,8028 18771,8088 18794,8148 18817,8202 18840,8262 18862,8317 18885,8376 18908,8436 18931,8491 18954,8550 18977,8610 18999,8665 19022,8725 19045,8779 19068,8839 19091,8899 19114,8953 19137,9013 19159,9068 19182,9127 19205,9182 19228,9242 19251,9297 19274,9356 19296,9411 19319,9471 19342,9525 19365,9580 19388,9640 19411,9695 19433,9749 19456,9809 19479,9864 19502,9918 19525,9973 19548,10033 19571,10088 19593,10142 19616,10197 19639,10252 19662,10306 19685,10361 19708,10416 19730,10471 19753,10525 19776,10580 19799,10635 19822,10689 19845,10738 19867,10793 19890,10848 19913,10897 19936,10952 19959,11007 19982,11057 20005,11111 20027,11161 20050,11216 20073,11265 20096,11320 20119,11370 20142,11420 20164,11469 20187,11524 20210,11574 20233,11624 20256,11673 20279,11723 20301,11773 20324,11823 20347,11872 20370,11922 20393,11972 20416,12022 20438,12066 20461,12116 20484,12166 20507,12211 20530,12260 20553,12310 20576,12355 20598,12405 20621,12449 20644,12494 20667,12544 20690,12589 20713,12633 20735,12678 20758,12728 20781,12773 20804,12817 20827,12862 20850,12907 20872,12952 20895,12996 20918,13036 20941,13081 20964,13126 20987,13171 21010,13210 21032,13255 21055,13295 21078,13340 21101,13380 21124,13424 21147,13464 21169,13509 21192,13549 21215,13588 21238,13628 21261,13668 21284,13713 21306,13753 21329,13792 21352,13832 21375,13872 21398,13907 21421,13947 21444,13986 21466,14026 21489,14066 21512,14101 21535,14141 21558,14175 21581,14215 21603,14250 21626,14290 21649,14325 21672,14364 21695,14399 21718,14434 21740,14469 21763,14509 21786,14543 21809,14578 21832,14613 21855,14648 21877,14683 21900,14718 21923,14752 21945,14787 21968,14817 21991,14852 22014,14887 22036,14917 22059,14951 22082,14986 22105,15016 22128,15051 22151,15081 22173,15116 22196,15145 22219,15175 22242,15210 22265,15240 22288,15270 22310,15300 22333,15329 22356,15359 22379,15389 22402,15419 22425,15449 22448,15479 22470,15509 22493,15538 22516,15568 22539,15598 22562,15623 22585,15653 22607,15683 22630,15707 22653,15737 22676,15767 22699,15792 22722,15822 22744,15847 22767,15872 22790,15901 22813,15926 22836,15951 22859,15981 22881,16006 22904,16031 22927,16056 22950,16081 22973,16105 22996,16130 23019,16155 23041,16180 23064,16205 23087,16230 23110,16255 23133,16280 23156,16304 23178,16324 23201,16349 23224,16374 23247,16399 23270,16419 23293,16444 23315,16464 23338,16488 23361,16508 23384,16533 23407,16553 23430,16578 23453,16598 23475,16618 23498,16643 23521,16663 23544,16682 23567,16707 23590,16727 23612,16747 23635,16767 23658,16787 23681,16807 23704,16827 23727,16847 23749,16866 23772,16886 23795,16906 23818,16926 23841,16946 23864,16966 23887,16986 23909,17001 23932,17021 23955,17041 23978,17056 24001,17075 24024,17095 24046,17110 24069,17130 24092,17150 24115,17165 24138,17185 24161,17200 24183,17220 24206,17235 24229,17250 24252,17269 24275,17284 24298,17304 24320,17319 24343,17334 24366,17349 24389,17369 24412,17384 24435,17399 24458,17414 24480,17429 24503,17444 24526,17458 24549,17478 24572,17493 24595,17508 24617,17523 24640,17538 24663,17553 24686,17563 24709,17578 24732,17593 24754,17608 24777,17623 24800,17638 24823,17652 24846,17662 24869,17677 24892,17692 24914,17707 24937,17717 24960,17732 24983,17747 25006,17757 25029,17772 25051,17782 25074,17797 25097,17812 25120,17822 25143,17836 25166,17846 25188,17861 25211,17871 25234,17881 25257,17896 25280,17906 25303,17921 25326,17931 25348,17941 25371,17956 25394,17966 25417,17976 25440,17991 25463,18001 25485,18011 25508,18021 25531,18030 25554,18045 25577,18055 25600,18065 25622,18075 25645,18085 25668,18095 25691,18105 25714,18115 25737,18130 25759,18140 25782,18150 25805,18160 25828,18170 25851,18180 25874,18190 25897,18195 25919,18205 25942,18215 25965,18224 25988,18234 26011,18244 26034,18254 26056,18264 26079,18269 26102,18279 26125,18289 26148,18299 26171,18309 26193,18314 26216,18324 26239,18334 26262,18344 26285,18349 26308,18359 26331,18369 26353,18374 26376,18384 26399,18389 26422,18399 26445,18409 26468,18413 26490,18423 26513,18428 26536,18438 26559,18448 26582,18453 26605,18463 26627,18468 26650,18478 26673,18483 26696,18493 26719,18498 26742,18503 26765,18513 26787,18518 26810,18528 26833,18533 26856,18538 26879,18548 26902,18553 26924,18563 26947,18568 26970,18573 26993,18583 27016,18588 27039,18593 27061,18598 27084,18607 27107,18612 27130,18617 27153,18627 27176,18632 27198,18637 27221,18642 27244,18647 27267,18657 27290,18662 27313,18667 27336,18672 27358,18677 27381,18687 27404,18692 27427,18697 27450,18702 27473,18707 27495,18712 27518,18717 27541,18722 27564,18727 27587,18732 27610,18742 27632,18747 27655,18752 27678,18757 27701,18762 27724,18767 27747,18772 27770,18777 27792,18782 27815,18787 27838,18792 27861,18797 27884,18801 27907,18806 27929,18811 27952,18816 27975,18816 27998,18821 28021,18826 28044,18831 28066,18836 28089,18841 28112,18846 28135,18851 28158,18856 28181,18861 28204,18861 28226,18866 28249,18871 28272,18876 28295,18881 28318,18886 28341,18886 28363,18891 28386,18896 28409,18901 28432,18906 28455,18906 28478,18911 28500,18916 28523,18921 28546,18921 28569,18926 28592,18931 28615,18936 28637,18936 28660,18941 28683,18946 28706,18951 28729,18951 28752,18956 28775,18961 28797,18961 28820,18966 28843,18971 28866,18976 28889,18976 28912,18981 28934,18986 28957,18986 28980,18991 29003,18991 29026,18995 29049,19000 29071,19000 29094,19005 29117,19010 29140,19010 29163,19015 29186,19015 29209,19020 29231,19025 29254,19025 29277,19030 29300,19030 29323,19035 29346,19040 29368,19040 29391,19045 29414,19045 29437,19050 29460,19050 29483,19055 29505,19055 29528,19060 29551,19060 29574,19065 29597,19070 29620,19070 29643,19075 29665,19075 29688,19080 29711,19080 29734,19085 29757,19085 29780,19090 29802,19090 29825,19090 29848,19095 29871,19095 29894,19100 29917,19100 29939,19105 29962,19105 29985,19110 30008,19110 30031,19115 30054,19115 30076,19120 30099,19120 30122,19120 30145,19125 30168,19125 30191,19130 30214,19130 30236,19130 30259,19135 30282,19135 30305,19140 30328,19140 30351,19145 30373,19145 30396,19145 30419,19150 30442,19150 30465,19150 30488,19155 30510,19155 30533,19160 30556,19160 30579,19160 30602,19165 30625,19165 30648,19165 30670,19170 30693,19170 30716,19170 30739,19175 30762,19175 30785,19175 30807,19180 30830,19180 30853,19180 30876,19185 30899,19185 30922,19185 30944,19189 30967,19189 30990,19189 31013,19194 31036,19194 31059,19194 31082,19199 31104,19199 31127,19199 31150,19204 31173,19204 31196,19204 31219,19204 31241,19209 31264,19209 31287,19209 31310,19214 31333,19214 31356,19214 31378,19214 31401,19219 31424,19219 31447,19219 31470,19219 31493,19224 31515,19224 31538,19224 31561,19224 31584,19229 31607,19229 31630,19229 31653,19229 31675,19234 31698,19234 31721,19234 31744,19234 31767,19239 31790,19239 31812,19239 31835,19239 31858,19244 31881,19244 31904,19244 31927,19244 31949,19249 31972,19249 31995,19249 32018,19249 32041,19249 32064,19254 32087,19254 32109,19254 32132,19254 32155,19254 32178,19259 32201,19259 32224,19259 32246,19259 32269,19259 32292,19264 32315,19264 32338,19264 32361,19264 32383,19264 32406,19269 32429,19269 32452,19269 32475,19269 32498,19269 32521,19269 32543,19274 32566,19274 32589,19274 32612,19274 32635,19274 32658,19279 32680,19279 32703,19279 32726,19279 32749,19279 32772,19279 32795,19284 32817,19284 32840,19284 32863,19284 32886,19284 32909,19284 32932,19284 32954,19289 32977,19289 33000,19289 33023,19289 33046,19289 33069,19289 33092,19294 33114,19294 33137,19294 33160,19294 33183,19294 33206,19294 33229,19294 33251,19299 33274,19299 33297,19299 33320,19299 33343,19299 33366,19299 33388,19299 33411,19299 33434,19304 33457,19304 33480,19304 33503,19304 33526,19304 33548,19304 33571,19304 33594,19304 33617,19309 33640,19309 33663,19309 33685,19309 33708,19309 33731,19309 33754,19309 33777,19309 33800,19314 33822,19314 33845,19314 33868,19314 33891,19314 33914,19314 33937,19314 33960,19314 33982,19314 34005,19319 34028,19319 34051,19319 34074,19319 34097,19319 34119,19319 34142,19319 34165,19319 34188,19319 34211,19319 34234,19324 34256,19324 34279,19324 34302,19324 34325,19324 34348,19324 34371,19324 34393,19324 34416,19324 34439,19324 34462,19324 34485,19329 34508,19329 34531,19329 34553,19329 34576,19329 34599,19329 34622,19329 34645,19329 34668,19329 34690,19329 34713,19329 34736,19329 34759,19334 34782,19334 34805,19334 34827,19334 34850,19334 34873,19334 34896,19334 34919,19334 34942,19334 34965,19334 34987,19334 35010,19334 35033,19334 35056,19334 35079,19339 35102,19339 35124,19339 35147,19339 35170,19339 35193,19339 35216,19339 35239,19339 35261,19339 35284,19339 35307,19339 35330,19339 35353,19339 35376,19339 35399,19339 35421,19344 35444,19344 35467,19344 35490,19344 35513,19344 35536,19344 35558,19344 35581,19344 35604,19344 35627,19344 35650,19344 35673,19344 35695,19344 35718,19344 35741,19344 35764,19344 35787,19344 35810,19349 35832,19349 35855,19349 35878,19349 35901,19349 35924,19349 35947,19349 35970,19349 35992,19349 36015,19349 36038,19349 36061,19349 36084,19349 36107,19349 36129,19349 36152,19349 36175,19349 36198,19349 36221,19349 36244,19349 36266,19354 36289,19354 36312,19354 36335,19354 36358,19354 36381,19354 36404,19354 36426,19354 36449,19354 36472,19354 36495,19354 36518,19354 36541,19354 36563,19354 36586,19354 36609,19354 36632,19354 36655,19354 36678,19354 36700,19354 36723,19354 36746,19354 36769,19354 36792,19354 36815,19359 36838,19359 36860,19359 36883,19359 36906,19359 36929,19359 36952,19359 36975,19359 36997,19359 37020,19359 37043,19359 37066,19359 37089,19359 37112,19359 37134,19359 37157,19359 37180,19359 37203,19359 37226,19359 37249,19359 37271,19359 37294,19359 37317,19359 37340,19359 37363,19359 37386,19359 37409,19359"/>
 <text class="TextShape"><tspan class="TextParagraph" font-family="Liberation Sans, sans-serif" font-size="353px" font-weight="400"><tspan class="TextPosition" x="3078" y="19947"><tspan fill="rgb(0,0,0)" stroke="none">0</tspan></tspan></tspan></text>
 <text class="TextShape"><tspan class="TextParagraph" font-family="Liberation Sans, sans-serif" font-size="353px" font-weight="400"><tspan class="TextPosition" x="7461" y="19947"><tspan fill="rgb(0,0,0)" stroke="none">200</tspan></tspan></tspan></text>
 <text class="TextShape"><tspan class="TextParagraph" font-family="Liberation Sans, sans-serif" font-size="353px" font-weight="400"><tspan class="TextPosition" x="12029" y="19947"><tspan fill="rgb(0,0,0)" stroke="none">400</tspan></tspan></tspan></text>
 <text class="TextShape"><tspan class="TextParagraph" font-family="Liberation Sans, sans-serif" font-size="353px" font-weight="400"><tspan class="TextPosition" x="16597" y="19947"><tspan fill="rgb(0,0,0)" stroke="none">600</tspan></tspan></tspan></text>
 <text class="TextShape"><tspan class="TextParagraph" font-family="Liberation Sans, sans-serif" font-size="353px" font-weight="400"><tspan class="TextPosition" x="21166" y="19947"><tspan fill="rgb(0,0,0)" stroke="none">800</tspan></tspan></tspan></text>
 <text class="TextShape"><tspan class="TextParagraph" font-family="Liberation Sans, sans-serif" font-size="353px" font-weight="400"><tspan class="TextPosition" x="25641" y="19947"><tspan fill="rgb(0,0,0)" stroke="none">1000</tspan></tspan></tspan></text>
 <text class="TextShape"><tspan class="TextParagraph" font-family="Liberation Sans, sans-serif" font-size="353px" font-weight="400"><tspan class="TextPosition" x="30209" y="19947"><tspan fill="rgb(0,0,0)" stroke="none">1200</tspan></tspan></tspan></text>
 <text class="TextShape"><tspan class="TextParagraph" font-family="Liberation Sans, sans-serif" font-size="353px" font-weight="400"><tspan class="TextPosition" x="34777" y="19947"><tspan fill="rgb(0,0,0)" stroke="none">1400</tspan></tspan></tspan></text>
 <text class="TextShape"><tspan class="TextParagraph" font-family="Liberation Sans, sans-serif" font-size="353px" font-weight="400"><tspan class="TextPosition" x="39346" y="19947"><tspan fill="rgb(0,0,0)" stroke="none">1600</tspan></tspan></tspan></text>
 <text class="TextShape"><tspan class="TextParagraph" font-family="Liberation Sans, sans-serif" font-size="353px" font-weight="400"><tspan class="TextPosition" x="2736" y="19500"><tspan fill="rgb(0,0,0)" stroke="none">0</tspan></tspan></tspan></text>
 <text class="TextShape"><tspan class="TextParagraph" font-family="Liberation Sans, sans-serif" font-size="353px" font-weight="400"><tspan class="TextPosition" x="1889" y="17012"><tspan fill="rgb(0,0,0)" stroke="none">0,0005</tspan></tspan></tspan></text>
 <text class="TextShape"><tspan class="TextParagraph" font-family="Liberation Sans, sans-serif" font-size="353px" font-weight="400"><tspan class="TextPosition" x="2074" y="14525"><tspan fill="rgb(0,0,0)" stroke="none">0,001</tspan></tspan></tspan></text>
 <text class="TextShape"><tspan class="TextParagraph" font-family="Liberation Sans, sans-serif" font-size="353px" font-weight="400"><tspan class="TextPosition" x="1889" y="12038"><tspan fill="rgb(0,0,0)" stroke="none">0,0015</tspan></tspan></tspan></text>
 <text class="TextShape"><tspan class="TextParagraph" font-family="Liberation Sans, sans-serif" font-size="353px" font-weight="400"><tspan class="TextPosition" x="2074" y="9551"><tspan fill="rgb(0,0,0)" stroke="none">0,002</tspan></tspan></tspan></text>
 <text class="TextShape"><tspan class="TextParagraph" font-family="Liberation Sans, sans-serif" font-size="353px" font-weight="400"><tspan class="TextPosition" x="1889" y="7064"><tspan fill="rgb(0,0,0)" stroke="none">0,0025</tspan></tspan></tspan></text>
 <text class="TextShape"><tspan class="TextParagraph" font-family="Liberation Sans, sans-serif" font-size="353px" font-weight="400"><tspan class="TextPosition" x="2074" y="4577"><tspan fill="rgb(0,0,0)" stroke="none">0,003</tspan></tspan></tspan></text>
 <text class="TextShape"><tspan class="TextParagraph" font-family="Liberation Sans, sans-serif" font-size="353px" font-weight="400"><tspan class="TextPosition" x="1889" y="2090"><tspan fill="rgb(0,0,0)" stroke="none">0,0035</tspan></tspan></tspan></text>
 <text class="TextShape"><tspan class="TextParagraph" font-family="Liberation Sans, sans-serif" font-size="459px" font-weight="400"><tspan class="TextPosition" x="20678" y="1099"><tspan fill="rgb(0,0,0)" stroke="none">d120 density</tspan></tspan></tspan></text>
 <path fill="none" stroke="rgb(0,69,134)" stroke-width="80" stroke-linejoin="round" d="M 41081,10717 L 41881,10717"/>
 <text class="TextShape"><tspan class="TextParagraph" font-family="Liberation Sans, sans-serif" font-size="353px" font-weight="400"><tspan class="TextPosition" x="41981" y="10836"><tspan fill="rgb(0,0,0)" stroke="none">probability</tspan></tspan></tspan></text>
 <text class="TextShape"><tspan class="TextParagraph" font-family="Liberation Sans, sans-serif" font-size="318px" font-weight="400"><tspan class="TextPosition" x="20485" y="20842"><tspan fill="rgb(0,0,0)" stroke="none">Length</tspan></tspan></tspan></text>
 <text class="TextShape" transform="rotate(-90 837 11666)"><tspan class="TextParagraph" font-family="Liberation Sans, sans-serif" font-size="318px" font-weight="400"><tspan class="TextPosition" x="837" y="11666"><tspan fill="rgb(0,0,0)" stroke="none">Probability</tspan></tspan></tspan></text>
</svg>