<?xml version="1.0" encoding="UTF-8"?>
<!DOCTYPE svg PUBLIC "-//W3C//DTD SVG 1.1//EN" "http://www.w3.org/Graphics/SVG/1.1/DTD/svg11.dtd">
<svg width="444mm" height="214mm" viewBox="0 0 44400 21400" version="1.1" xmlns="http://www.w3.org/2000/svg" xmlns:xlink="http://www.w3.org/1999/xlink" stroke-width="28.222" stroke-linejoin="round" xml:space="preserve">
 <path fill="rgb(255,255,255)" stroke="none" d="M 22183,21436 L 0,21436 0,0 44365,0 44365,21436 22183,21436 Z"/>
 <path fill="none" stroke="rgb(179,179,179)" stroke-linejoin="round" d="M 21413,19380 L 2625,19380 2625,1971 40201,1971 40201,19380 21413,19380 Z"/>
 <path fill="none" stroke="rgb(179,179,179)" stroke-linejoin="round" d="M 40201,19379 L 2625,19379"/>
 <path fill="none" stroke="rgb(179,179,179)" stroke-linejoin="round" d="M 40201,16477 L 2625,16477"/>
 <path fill="none" stroke="rgb(179,179,179)" stroke-linejoin="round" d="M 40201,13575 L 2625,13575"/>
 <path fill="none" stroke="rgb(179,179,179)" stroke-linejoin="round" d="M 40201,10674 L 2625,10674"/>
 <path fill="none" stroke="rgb(179,179,179)" stroke-linejoin="round" d="M 40201,7773 L 2625,7773"/>
 <path fill="none" stroke="rgb(179,179,179)" stroke-linejoin="round" d="M 40201,4871 L 2625,4871"/>
 <path fill="none" stroke="rgb(179,179,179)" stroke-linejoin="round" d="M 40201,1969 L 2625,1969"/>
 <path fill="none" stroke="rgb(179,179,179)" stroke-linejoin="round" d="M 2625,19529 L 2625,19379"/>
 <path fill="none" stroke="rgb(179,179,179)" stroke-linejoin="round" d="M 2625,19529 L 2625,19379"/>
 <path fill="none" stroke="rgb(179,179,179)" stroke-linejoin="round" d="M 7322,19529 L 7322,19379"/>
 <path fill="none" stroke="rgb(179,179,179)" stroke-linejoin="round" d="M 7322,19529 L 7322,19379"/>
 <path fill="none" stroke="rgb(179,179,179)" stroke-linejoin="round" d="M 12019,19529 L 12019,19379"/>
 <path fill="none" stroke="rgb(179,179,179)" stroke-linejoin="round" d="M 12019,19529 L 12019,19379"/>
 <path fill="none" stroke="rgb(179,179,179)" stroke-linejoin="round" d="M 16716,19529 L 16716,19379"/>
 <path fill="none" stroke="rgb(179,179,179)" stroke-linejoin="round" d="M 16716,19529 L 16716,19379"/>
 <path fill="none" stroke="rgb(179,179,179)" stroke-linejoin="round" d="M 21413,19529 L 21413,19379"/>
 <path fill="none" stroke="rgb(179,179,179)" stroke-linejoin="round" d="M 21413,19529 L 21413,19379"/>
 <path fill="none" stroke="rgb(179,179,179)" stroke-linejoin="round" d="M 26109,19529 L 26109,19379"/>
 <path fill="none" stroke="rgb(179,179,179)" stroke-linejoin="round" d="M 26109,19529 L 26109,19379"/>
 <path fill="none" stroke="rgb(179,179,179)" stroke-linejoin="round" d="M 30806,19529 L 30806,19379"/>
 <path fill="none" stroke="rgb(179,179,179)" stroke-linejoin="round" d="M 30806,19529 L 30806,19379"/>
 <path fill="none" stroke="rgb(179,179,179)" stroke-linejoin="round" d="M 35503,19529 L 35503,19379"/>
 <path fill="none" stroke="rgb(179,179,179)" stroke-linejoin="round" d="M 35503,19529 L 35503,19379"/>
 <path fill="none" stroke="rgb(179,179,179)" stroke-linejoin="round" d="M 40201,19529 L 40201,19379"/>
 <path fill="none" stroke="rgb(179,179,179)" stroke-linejoin="round" d="M 40201,19529 L 40201,19379"/>
 <path fill="none" stroke="rgb(179,179,179)" stroke-linejoin="round" d="M 2625,19379 L 40201,19379"/>
 <path fill="none" stroke="rgb(179,179,179)" stroke-linejoin="round" d="M 2475,19379 L 2625,19379"/>
 <path fill="none" stroke="rgb(179,179,179)" stroke-linejoin="round" d="M 2475,19379 L 2625,19379"/>
 <path fill="none" stroke="rgb(179,179,179)" stroke-linejoin="round" d="M 2475,16477 L 2625,16477"/>
 <path fill="none" stroke="rgb(179,179,179)" stroke-linejoin="round" d="M 2475,16477 L 2625,16477"/>
 <path fill="none" stroke="rgb(179,179,179)" stroke-linejoin="round" d="M 2475,13575 L 2625,13575"/>
 <path fill="none" stroke="rgb(179,179,179)" stroke-linejoin="round" d="M 2475,13575 L 2625,13575"/>
 <path fill="none" stroke="rgb(179,179,179)" stroke-linejoin="round" d="M 2475,10674 L 2625,10674"/>
 <path fill="none" stroke="rgb(179,179,179)" stroke-linejoin="round" d="M 2475,10674 L 2625,10674"/>
 <path fill="none" stroke="rgb(179,179,179)" stroke-linejoin="round" d="M 2475,7773 L 2625,7773"/>
 <path fill="none" stroke="rgb(179,179,179)" stroke-linejoin="round" d="M 2475,7773 L 2625,7773"/>
 <path fill="none" stroke="rgb(179,179,179)" stroke-linejoin="round" d="M 2475,4871 L 2625,4871"/>
 <path fill="none" stroke="rgb(179,179,179)" stroke-linejoin="round" d="M 2475,4871 L 2625,4871"/>
 <path fill="none" stroke="rgb(179,179,179)" stroke-linejoin="round" d="M 2475,1969 L 2625,1969"/>
 <path fill="none" stroke="rgb(179,179,179)" stroke-linejoin="round" d="M 2475,1969 L 2625,1969"/>
 <path fill="none" stroke="rgb(179,179,179)" stroke-linejoin="round" d="M 2625,19379 L 2625,1969"/>
 <path fill="none" stroke="rgb(0,69,134)" stroke-width="80" stroke-linejoin="round" d="M 2625,19379 L 2671,19379 2718,19379 2742,19379 2789,19379 2836,19379 2859,19379 2906,19379 2930,19379 2977,19379 3024,19379 3047,19379 3094,19379 3141,19379 3165,19379 3212,19379 3235,19379 3282,19379 3329,19379 3353,19379 3400,19379 3446,19379 3470,19379 3517,19379 3540,19379 3587,19379 3634,19379 3658,19379 3705,19379 3752,19379 3775,19379 3822,19379 3846,19379 3893,19379 3940,19379 3963,19379 4010,19379 4057,19379 4081,19379 4128,19379 4151,19379 4198,19379 4245,19379 4268,19379 4315,19379 4362,19379 4386,19379 4433,19379 4456,19379 4503,19379 4550,19379 4574,19379 4621,19379 4668,19379 4691,19379 4738,19379 4762,19379 4809,19379 4856,19379 4879,19379 4926,19379 4973,19379 4997,19379 5044,19379 5067,19379 5114,19379 5161,19379 5184,19379 5231,19379 5278,19379 5302,19379 5349,19379 5372,19379 5419,19379 5466,19379 5490,19379 5537,19379 5584,19379 5607,19379 5654,19379 5678,19379 5725,19379 5772,19379 5795,19379 5842,19379 5889,19379 5912,19379 5959,19379 5983,19379 6030,19379 6077,19379 6100,19379 6147,19379 6194,19379 6218,19379 6265,19379 6288,19379 6335,19379 6382,19379 6406,19379 6453,19379 6500,19379 6523,19379 6570,19379 6594,19379 6641,19379 6688,19379 6711,19379 6758,19379 6805,19379 6828,19379 6875,19379 6899,19379 6946,19379 6993,19379 7016,19379 7063,19379 7110,19379 7134,19379 7181,19379 7204,19379 7251,19379 7298,19379 7322,19379 7369,19379 7416,19379 7439,19379 7486,19379 7510,19379 7556,19379 7603,19379 7627,19379 7674,19379 7721,19379 7744,19379 7791,19379 7815,19379 7862,19379 7909,19379 7932,19379 7979,19379 8026,19379 8050,19379 8097,19379 8120,19379 8167,19379 8214,19379 8238,19379 8285,19379 8332,19379 8355,19379 8402,19379 8425,19379 8472,19379 8519,19379 8543,19379 8590,19379 8637,19379 8660,19379 8707,19379 8731,19379 8778,19379 8825,19379 8848,19379 8895,19379 8942,19379 8966,19379 9013,19379 9036,19379 9083,19379 9130,19379 9154,19378 9200,19378 9247,19378 9271,19378 9318,19378 9341,19378 9388,19378 9435,19378 9459,19378 9506,19378 9553,19378 9576,19378 9623,19378 9647,19378 9694,19378 9741,19378 9764,19378 9811,19378 9858,19378 9882,19378 9929,19378 9952,19378 9999,19378 10046,19378 10069,19378 10116,19378 10140,19377 10187,19377 10234,19377 10257,19377 10304,19377 10351,19376 10375,19376 10422,19376 10445,19375 10492,19375 10539,19374 10563,19374 10610,19373 10657,19373 10680,19372 10727,19371 10751,19371 10797,19369 10844,19368 10868,19367 10915,19366 10962,19364 10985,19363 11032,19361 11056,19360 11103,19358 11150,19355 11173,19354 11220,19350 11267,19347 11291,19345 11338,19341 11361,19339 11408,19335 11455,19330 11479,19328 11526,19322 11573,19316 11596,19313 11643,19306 11666,19303 11713,19295 11760,19287 11784,19283 11831,19274 11878,19265 11901,19259 11948,19249 11972,19243 12019,19232 12066,19219 12089,19212 12136,19199 12183,19184 12207,19177 12254,19161 12277,19152 12324,19135 12371,19117 12395,19107 12441,19088 12488,19067 12512,19056 12559,19034 12582,19022 12629,18998 12676,18973 12700,18960 12747,18933 12794,18905 12817,18891 12864,18861 12888,18846 12911,18830 12935,18814 12958,18797 12982,18781 13005,18764 13029,18747 13052,18729 13076,18711 13099,18693 13123,18674 13170,18636 13193,18616 13240,18576 13263,18556 13287,18535 13310,18514 13334,18492 13357,18470 13381,18448 13404,18425 13428,18402 13451,18379 13475,18356 13498,18332 13545,18283 13569,18258 13592,18233 13616,18207 13663,18155 13686,18128 13710,18101 13733,18074 13757,18047 13780,18019 13804,17990 13851,17933 13874,17904 13898,17874 13921,17844 13945,17814 13968,17784 13992,17753 14015,17722 14039,17690 14062,17659 14085,17627 14109,17594 14132,17562 14156,17529 14179,17496 14203,17462 14226,17428 14250,17394 14273,17360 14297,17325 14320,17290 14344,17255 14367,17219 14391,17184 14414,17148 14438,17111 14461,17075 14485,17038 14508,17001 14532,16964 14555,16926 14579,16888 14602,16850 14626,16812 14649,16773 14673,16735 14696,16696 14720,16656 14743,16617 14767,16577 14790,16537 14814,16497 14837,16457 14861,16417 14884,16376 14907,16335 14931,16294 14954,16253 14978,16211 15001,16170 15025,16128 15048,16086 15072,16044 15095,16002 15119,15959 15142,15917 15166,15874 15189,15831 15213,15788 15236,15745 15260,15702 15283,15658 15307,15615 15330,15571 15354,15527 15377,15483 15401,15439 15424,15395 15448,15351 15471,15306 15495,15262 15518,15217 15542,15173 15565,15128 15589,15083 15612,15039 15636,14994 15659,14949 15683,14904 15706,14858 15729,14813 15753,14768 15776,14723 15800,14677 15823,14632 15847,14587 15870,14541 15894,14496 15917,14450 15941,14405 15964,14359 15988,14314 16011,14268 16035,14222 16058,14177 16082,14131 16105,14086 16129,14040 16152,13995 16176,13949 16199,13903 16223,13858 16246,13812 16270,13767 16293,13721 16317,13676 16340,13631 16364,13585 16387,13540 16411,13495 16434,13449 16458,13404 16481,13359 16505,13314 16528,13269 16551,13224 16575,13179 16598,13134 16622,13089 16645,13044 16669,13000 16692,12955 16716,12911 16739,12866 16763,12822 16786,12777 16810,12733 16833,12689 16857,12645 16880,12601 16904,12557 16927,12514 16951,12470 16974,12427 16998,12383 17021,12340 17045,12297 17068,12253 17092,12210 17115,12168 17139,12125 17162,12082 17186,12040 17209,11997 17233,11955 17256,11913 17280,11871 17303,11829 17327,11787 17350,11745 17373,11704 17397,11662 17420,11621 17444,11580 17467,11539 17491,11498 17514,11457 17538,11417 17561,11376 17585,11336 17608,11296 17632,11256 17655,11216 17679,11176 17702,11137 17726,11097 17749,11058 17773,11019 17796,10980 17820,10941 17843,10902 17867,10864 17890,10825 17914,10787 17937,10749 17961,10712 17984,10674 18008,10637 18031,10600 18055,10562 18078,10525 18102,10488 18125,10451 18148,10415 18172,10378 18195,10342 18219,10306 18242,10270 18266,10234 18289,10199 18313,10163 18336,10128 18360,10093 18383,10058 18407,10023 18430,9989 18454,9954 18477,9920 18501,9886 18524,9852 18548,9818 18571,9784 18595,9751 18618,9718 18642,9684 18665,9652 18689,9619 18712,9586 18736,9554 18759,9522 18783,9489 18806,9457 18830,9426 18853,9394 18877,9363 18900,9331 18924,9300 18947,9269 18970,9239 18994,9208 19017,9178 19041,9148 19064,9117 19088,9088 19111,9058 19135,9028 19158,8999 19182,8970 19229,8912 19252,8883 19276,8854 19299,8826 19323,8798 19346,8770 19370,8742 19393,8714 19417,8686 19464,8632 19487,8605 19511,8578 19534,8551 19558,8524 19581,8498 19605,8471 19628,8445 19652,8419 19675,8393 19699,8368 19722,8342 19746,8317 19769,8292 19792,8267 19816,8242 19839,8217 19863,8192 19886,8168 19910,8144 19933,8120 19957,8096 19980,8072 20004,8048 20027,8025 20074,7978 20098,7955 20145,7909 20168,7887 20192,7864 20215,7842 20239,7820 20262,7798 20309,7754 20333,7733 20380,7690 20403,7669 20450,7627 20474,7606 20497,7585 20521,7565 20544,7544 20568,7524 20591,7504 20614,7484 20638,7464 20661,7445 20685,7425 20708,7406 20732,7387 20755,7367 20779,7348 20802,7329 20826,7311 20849,7292 20873,7274 20896,7255 20920,7237 20943,7219 20967,7201 20990,7183 21014,7165 21061,7130 21108,7096 21131,7078 21178,7045 21225,7011 21249,6995 21272,6978 21296,6962 21319,6946 21366,6914 21413,6882 21436,6867 21460,6851 21483,6836 21507,6820 21530,6805 21554,6790 21601,6760 21624,6746 21648,6731 21671,6716 21718,6688 21742,6674 21765,6659 21789,6645 21812,6632 21836,6618 21859,6604 21906,6577 21930,6564 21977,6537 22024,6511 22047,6498 22094,6472 22141,6447 22165,6435 22211,6410 22234,6398 22281,6374 22328,6350 22351,6339 22398,6315 22445,6293 22469,6281 22516,6259 22539,6248 22586,6226 22633,6205 22657,6194 22704,6173 22727,6163 22751,6152 22774,6142 22798,6132 22821,6122 22845,6112 22892,6092 22939,6073 22962,6063 23009,6044 23033,6035 23056,6025 23079,6016 23126,5998 23150,5989 23197,5971 23244,5953 23267,5945 23291,5936 23314,5928 23361,5911 23385,5902 23432,5886 23455,5878 23502,5861 23549,5845 23573,5838 23620,5822 23643,5814 23667,5807 23690,5799 23737,5784 23761,5777 23808,5762 23855,5748 23878,5741 23925,5727 23948,5720 23972,5713 23995,5706 24042,5693 24066,5686 24113,5673 24160,5660 24183,5653 24230,5641 24277,5628 24301,5622 24348,5610 24371,5604 24418,5592 24465,5581 24489,5575 24536,5563 24583,5552 24606,5547 24653,5536 24677,5530 24723,5519 24770,5509 24794,5504 24817,5499 24841,5493 24888,5483 24911,5478 24958,5468 24982,5464 25029,5454 25076,5444 25099,5440 25123,5435 25146,5430 25170,5426 25217,5417 25264,5408 25287,5404 25334,5395 25381,5386 25405,5382 25452,5374 25475,5370 25522,5361 25569,5353 25592,5350 25639,5342 25686,5334 25710,5330 25757,5323 25780,5319 25827,5312 25874,5304 25898,5301 25945,5294 25992,5287 26015,5284 26039,5280 26062,5277 26086,5273 26133,5267 26180,5260 26203,5257 26250,5251 26274,5248 26297,5245 26320,5242 26367,5235 26391,5232 26438,5227 26485,5221 26508,5218 26555,5212 26602,5207 26626,5204 26673,5198 26696,5196 26743,5190 26790,5185 26814,5182 26861,5177 26908,5172 26931,5170 26978,5165 27002,5162 27049,5158 27096,5153 27119,5151 27166,5146 27213,5142 27236,5139 27283,5135 27307,5133 27354,5128 27401,5124 27424,5122 27471,5118 27518,5114 27542,5112 27589,5108 27612,5106 27659,5102 27706,5098 27730,5096 27777,5093 27800,5091 27824,5089 27847,5087 27894,5084 27918,5082 27964,5078 28011,5075 28035,5073 28082,5070 28129,5067 28152,5065 28199,5062 28223,5060 28270,5057 28317,5054 28340,5053 28387,5050 28434,5047 28458,5045 28505,5042 28528,5041 28575,5038 28622,5035 28646,5034 28693,5031 28740,5029 28763,5027 28810,5025 28833,5024 28880,5021 28927,5019 28951,5017 28998,5015 29045,5013 29068,5011 29115,5009 29139,5008 29186,5006 29233,5003 29256,5002 29303,5000 29350,4998 29374,4997 29421,4995 29444,4994 29491,4992 29538,4990 29562,4989 29608,4987 29655,4985 29679,4984 29726,4982 29749,4981 29796,4979 29843,4978 29867,4977 29914,4975 29961,4973 29984,4972 30031,4971 30055,4970 30102,4968 30149,4967 30172,4966 30196,4965 30219,4964 30266,4963 30290,4962 30337,4961 30360,4960 30407,4958 30454,4957 30477,4956 30524,4955 30571,4953 30595,4953 30642,4951 30665,4951 30712,4949 30759,4948 30783,4947 30830,4946 30877,4945 30900,4944 30947,4943 30971,4942 31018,4941 31065,4940 31088,4940 31135,4938 31182,4937 31206,4937 31252,4936 31276,4935 31323,4934 31370,4933 31393,4933 31440,4932 31487,4931 31511,4930 31558,4929 31581,4929 31628,4928 31675,4927 31699,4926 31746,4925 31793,4924 31816,4924 31863,4923 31887,4923 31934,4922 31981,4921 32004,4921 32051,4920 32098,4919 32121,4919 32168,4918 32192,4917 32239,4917 32286,4916 32309,4915 32356,4915 32403,4914 32427,4914 32474,4913 32497,4913 32544,4912 32591,4911 32615,4911 32662,4910 32685,4910 32732,4909 32779,4909 32803,4908 32849,4908 32896,4907 32920,4907 32967,4906 32990,4906 33037,4905 33084,4905 33108,4905 33155,4904 33202,4903 33225,4903 33272,4903 33296,4902 33343,4902 33390,4901 33413,4901 33460,4901 33507,4900 33531,4900 33578,4899 33601,4899 33648,4899 33695,4898 33718,4898 33765,4898 33812,4897 33836,4897 33883,4896 33906,4896 33953,4896 34000,4895 34024,4895 34071,4895 34118,4894 34141,4894 34188,4894 34212,4894 34259,4893 34306,4893 34329,4893 34376,4892 34423,4892 34447,4892 34493,4892 34517,4891 34564,4891 34611,4891 34634,4891 34681,4890 34728,4890 34752,4890 34799,4889 34822,4889 34869,4889 34916,4889 34940,4889 34987,4888 35034,4888 35057,4888 35104,4888 35128,4887 35175,4887 35222,4887 35245,4887 35292,4886 35339,4886 35362,4886 35409,4886 35433,4886 35480,4886 35527,4885 35550,4885 35597,4885 35644,4885 35668,4885 35715,4884 35738,4884 35785,4884 35832,4884 35856,4884 35903,4883 35950,4883 35973,4883 36020,4883 36044,4883 36091,4883 36137,4882 36161,4882 36208,4882 36255,4882 36278,4882 36325,4882 36349,4882 36396,4882 36443,4881 36466,4881 36513,4881 36560,4881 36584,4881 36631,4881 36654,4881 36701,4880 36748,4880 36772,4880 36819,4880 36866,4880 36889,4880 36936,4880 36959,4880 37006,4879 37053,4879 37077,4879 37124,4879 37171,4879 37194,4879 37241,4879 37265,4879 37312,4879 37359,4879 37382,4878 37429,4878 37476,4878 37500,4878 37547,4878 37570,4878 37617,4878 37664,4878 37688,4878 37735,4878 37781,4877 37805,4877"/>
 <text class="TextShape"><tspan class="TextParagraph" font-family="Liberation Sans, sans-serif" font-size="353px" font-weight="400"><tspan class="TextPosition" x="2532" y="19947"><tspan fill="rgb(0,0,0)" stroke="none">0</tspan></tspan></tspan></text>
 <text class="TextShape"><tspan class="TextParagraph" font-family="Liberation Sans, sans-serif" font-size="353px" font-weight="400"><tspan class="TextPosition" x="7044" y="19947"><tspan fill="rgb(0,0,0)" stroke="none">200</tspan></tspan></tspan></text>
 <text class="TextShape"><tspan class="TextParagraph" font-family="Liberation Sans, sans-serif" font-size="353px" font-weight="400"><tspan class="TextPosition" x="11741" y="19947"><tspan fill="rgb(0,0,0)" stroke="none">400</tspan></tspan></tspan></text>
 <text class="TextShape"><tspan class="TextParagraph" font-family="Liberation Sans, sans-serif" font-size="353px" font-weight="400"><tspan class="TextPosition" x="16438" y="19947"><tspan fill="rgb(0,0,0)" stroke="none">600</tspan></tspan></tspan></text>
 <text class="TextShape"><tspan class="TextParagraph" font-family="Liberation Sans, sans-serif" font-size="353px" font-weight="400"><tspan class="TextPosition" x="21135" y="19947"><tspan fill="rgb(0,0,0)" stroke="none">800</tspan></tspan></tspan></text>
 <text class="TextShape"><tspan class="TextParagraph" font-family="Liberation Sans, sans-serif" font-size="353px" font-weight="400"><tspan class="TextPosition" x="25739" y="19947"><tspan fill="rgb(0,0,0)" stroke="none">1000</tspan></tspan></tspan></text>
 <text class="TextShape"><tspan class="TextParagraph" font-family="Liberation Sans, sans-serif" font-size="353px" font-weight="400"><tspan class="TextPosition" x="30436" y="19947"><tspan fill="rgb(0,0,0)" stroke="none">1200</tspan></tspan></tspan></text>
 <text class="TextShape"><tspan class="TextParagraph" font-family="Liberation Sans, sans-serif" font-size="353px" font-weight="400"><tspan class="TextPosition" x="35133" y="19947"><tspan fill="rgb(0,0,0)" stroke="none">1400</tspan></tspan></tspan></text>
 <text class="TextShape"><tspan class="TextParagraph" font-family="Liberation Sans, sans-serif" font-size="353px" font-weight="400"><tspan class="TextPosition" x="39831" y="19947"><tspan fill="rgb(0,0,0)" stroke="none">1600</tspan></tspan></tspan></text>
 <text class="TextShape"><tspan class="TextParagraph" font-family="Liberation Sans, sans-serif" font-size="353px" font-weight="400"><tspan class="TextPosition" x="2190" y="19500"><tspan fill="rgb(0,0,0)" stroke="none">0</tspan></tspan></tspan></text>
 <text class="TextShape"><tspan class="TextParagraph" font-family="Liberation Sans, sans-serif" font-size="353px" font-weight="400"><tspan class="TextPosition" x="1899" y="16598"><tspan fill="rgb(0,0,0)" stroke="none">0,2</tspan></tspan></tspan></text>
 <text class="TextShape"><tspan class="TextParagraph" font-family="Liberation Sans, sans-serif" font-size="353px" font-weight="400"><tspan class="TextPosition" x="1899" y="13696"><tspan fill="rgb(0,0,0)" stroke="none">0,4</tspan></tspan></tspan></text>
 <text class="TextShape"><tspan class="TextParagraph" font-family="Liberation Sans, sans-serif" font-size="353px" font-weight="400"><tspan class="TextPosition" x="1899" y="10794"><tspan fill="rgb(0,0,0)" stroke="none">0,6</tspan></tspan></tspan></text>
 <text class="TextShape"><tspan class="TextParagraph" font-family="Liberation Sans, sans-serif" font-size="353px" font-weight="400"><tspan class="TextPosition" x="1899" y="7893"><tspan fill="rgb(0,0,0)" stroke="none">0,8</tspan></tspan></tspan></text>
 <text class="TextShape"><tspan class="TextParagraph" font-family="Liberation Sans, sans-serif" font-size="353px" font-weight="400"><tspan class="TextPosition" x="2190" y="4991"><tspan fill="rgb(0,0,0)" stroke="none">1</tspan></tspan></tspan></text>
 <text class="TextShape"><tspan class="TextParagraph" font-family="Liberation Sans, sans-serif" font-size="353px" font-weight="400"><tspan class="TextPosition" x="1899" y="2089"><tspan fill="rgb(0,0,0)" stroke="none">1,2</tspan></tspan></tspan></text>
 <text class="TextShape"><tspan class="TextParagraph" font-family="Liberation Sans, sans-serif" font-size="459px" font-weight="400"><tspan class="TextPosition" x="20556" y="1099"><tspan fill="rgb(0,0,0)" stroke="none">d120 distribution</tspan></tspan></tspan></text>
 <path fill="none" stroke="rgb(0,69,134)" stroke-width="80" stroke-linejoin="round" d="M 41576,10717 L 42376,10717"/>
 <text class="TextShape"><tspan class="TextParagraph" font-family="Liberation Sans, sans-serif" font-size="353px" font-weight="400"><tspan class="TextPosition" x="42476" y="10836"><tspan fill="rgb(0,0,0)" stroke="none">probability</tspan></tspan></tspan></text>
 <text class="TextShape"><tspan class="TextParagraph" font-family="Liberation Sans, sans-serif" font-size="318px" font-weight="400"><tspan class="TextPosition" x="20733" y="20842"><tspan fill="rgb(0,0,0)" stroke="none">Length</tspan></tspan></tspan></text>
 <text class="TextShape" transform="rotate(-90 837 11666)"><tspan class="TextParagraph" font-family="Liberation Sans, sans-serif" font-size="318px" font-weight="400"><tspan class="TextPosition" x="837" y="11666"><tspan fill="rgb(0,0,0)" stroke="none">Probability</tspan></tspan></tspan></text>
</svg>