<?xml version="1.0" encoding="UTF-8"?>
<!DOCTYPE svg PUBLIC "-//W3C//DTD SVG 1.1//EN" "http://www.w3.org/Graphics/SVG/1.1/DTD/svg11.dtd">
<svg width="470mm" height="215mm" viewBox="0 0 47000 21500" version="1.1" xmlns="http://www.w3.org/2000/svg" xmlns:xlink="http://www.w3.org/1999/xlink" stroke-width="28.222" stroke-linejoin="round" xml:space="preserve">
 <path fill="rgb(255,255,255)" stroke="none" d="M 23496,21516 L 0,21516 0,0 46991,0 46991,21516 23496,21516 Z"/>
 <path fill="none" stroke="rgb(179,179,179)" stroke-linejoin="round" d="M 23354,19458 L 3127,19458 3127,1974 43581,1974 43581,19458 23354,19458 Z"/>
 <path fill="none" stroke="rgb(179,179,179)" stroke-linejoin="round" d="M 43580,19457 L 3127,19457"/>
 <path fill="none" stroke="rgb(179,179,179)" stroke-linejoin="round" d="M 43580,17514 L 3127,17514"/>
 <path fill="none" stroke="rgb(179,179,179)" stroke-linejoin="round" d="M 43580,15571 L 3127,15571"/>
 <path fill="none" stroke="rgb(179,179,179)" stroke-linejoin="round" d="M 43580,13628 L 3127,13628"/>
 <path fill="none" stroke="rgb(179,179,179)" stroke-linejoin="round" d="M 43580,11685 L 3127,11685"/>
 <path fill="none" stroke="rgb(179,179,179)" stroke-linejoin="round" d="M 43580,9744 L 3127,9744"/>
 <path fill="none" stroke="rgb(179,179,179)" stroke-linejoin="round" d="M 43580,7801 L 3127,7801"/>
 <path fill="none" stroke="rgb(179,179,179)" stroke-linejoin="round" d="M 43580,5858 L 3127,5858"/>
 <path fill="none" stroke="rgb(179,179,179)" stroke-linejoin="round" d="M 43580,3915 L 3127,3915"/>
 <path fill="none" stroke="rgb(179,179,179)" stroke-linejoin="round" d="M 43580,1973 L 3127,1973"/>
 <path fill="none" stroke="rgb(179,179,179)" stroke-linejoin="round" d="M 3127,19607 L 3127,19457"/>
 <path fill="none" stroke="rgb(179,179,179)" stroke-linejoin="round" d="M 3127,19607 L 3127,19457"/>
 <path fill="none" stroke="rgb(179,179,179)" stroke-linejoin="round" d="M 7172,19607 L 7172,19457"/>
 <path fill="none" stroke="rgb(179,179,179)" stroke-linejoin="round" d="M 7172,19607 L 7172,19457"/>
 <path fill="none" stroke="rgb(179,179,179)" stroke-linejoin="round" d="M 11218,19607 L 11218,19457"/>
 <path fill="none" stroke="rgb(179,179,179)" stroke-linejoin="round" d="M 11218,19607 L 11218,19457"/>
 <path fill="none" stroke="rgb(179,179,179)" stroke-linejoin="round" d="M 15263,19607 L 15263,19457"/>
 <path fill="none" stroke="rgb(179,179,179)" stroke-linejoin="round" d="M 15263,19607 L 15263,19457"/>
 <path fill="none" stroke="rgb(179,179,179)" stroke-linejoin="round" d="M 19309,19607 L 19309,19457"/>
 <path fill="none" stroke="rgb(179,179,179)" stroke-linejoin="round" d="M 19309,19607 L 19309,19457"/>
 <path fill="none" stroke="rgb(179,179,179)" stroke-linejoin="round" d="M 23354,19607 L 23354,19457"/>
 <path fill="none" stroke="rgb(179,179,179)" stroke-linejoin="round" d="M 23354,19607 L 23354,19457"/>
 <path fill="none" stroke="rgb(179,179,179)" stroke-linejoin="round" d="M 27398,19607 L 27398,19457"/>
 <path fill="none" stroke="rgb(179,179,179)" stroke-linejoin="round" d="M 27398,19607 L 27398,19457"/>
 <path fill="none" stroke="rgb(179,179,179)" stroke-linejoin="round" d="M 31444,19607 L 31444,19457"/>
 <path fill="none" stroke="rgb(179,179,179)" stroke-linejoin="round" d="M 31444,19607 L 31444,19457"/>
 <path fill="none" stroke="rgb(179,179,179)" stroke-linejoin="round" d="M 35490,19607 L 35490,19457"/>
 <path fill="none" stroke="rgb(179,179,179)" stroke-linejoin="round" d="M 35490,19607 L 35490,19457"/>
 <path fill="none" stroke="rgb(179,179,179)" stroke-linejoin="round" d="M 39535,19607 L 39535,19457"/>
 <path fill="none" stroke="rgb(179,179,179)" stroke-linejoin="round" d="M 39535,19607 L 39535,19457"/>
 <path fill="none" stroke="rgb(179,179,179)" stroke-linejoin="round" d="M 43580,19607 L 43580,19457"/>
 <path fill="none" stroke="rgb(179,179,179)" stroke-linejoin="round" d="M 43580,19607 L 43580,19457"/>
 <path fill="none" stroke="rgb(179,179,179)" stroke-linejoin="round" d="M 3127,19457 L 43580,19457"/>
 <path fill="none" stroke="rgb(179,179,179)" stroke-linejoin="round" d="M 2977,19457 L 3127,19457"/>
 <path fill="none" stroke="rgb(179,179,179)" stroke-linejoin="round" d="M 2977,19457 L 3127,19457"/>
 <path fill="none" stroke="rgb(179,179,179)" stroke-linejoin="round" d="M 2977,17514 L 3127,17514"/>
 <path fill="none" stroke="rgb(179,179,179)" stroke-linejoin="round" d="M 2977,17514 L 3127,17514"/>
 <path fill="none" stroke="rgb(179,179,179)" stroke-linejoin="round" d="M 2977,15571 L 3127,15571"/>
 <path fill="none" stroke="rgb(179,179,179)" stroke-linejoin="round" d="M 2977,15571 L 3127,15571"/>
 <path fill="none" stroke="rgb(179,179,179)" stroke-linejoin="round" d="M 2977,13628 L 3127,13628"/>
 <path fill="none" stroke="rgb(179,179,179)" stroke-linejoin="round" d="M 2977,13628 L 3127,13628"/>
 <path fill="none" stroke="rgb(179,179,179)" stroke-linejoin="round" d="M 2977,11685 L 3127,11685"/>
 <path fill="none" stroke="rgb(179,179,179)" stroke-linejoin="round" d="M 2977,11685 L 3127,11685"/>
 <path fill="none" stroke="rgb(179,179,179)" stroke-linejoin="round" d="M 2977,9744 L 3127,9744"/>
 <path fill="none" stroke="rgb(179,179,179)" stroke-linejoin="round" d="M 2977,9744 L 3127,9744"/>
 <path fill="none" stroke="rgb(179,179,179)" stroke-linejoin="round" d="M 2977,7801 L 3127,7801"/>
 <path fill="none" stroke="rgb(179,179,179)" stroke-linejoin="round" d="M 2977,7801 L 3127,7801"/>
 <path fill="none" stroke="rgb(179,179,179)" stroke-linejoin="round" d="M 2977,5858 L 3127,5858"/>
 <path fill="none" stroke="rgb(179,179,179)" stroke-linejoin="round" d="M 2977,5858 L 3127,5858"/>
 <path fill="none" stroke="rgb(179,179,179)" stroke-linejoin="round" d="M 2977,3915 L 3127,3915"/>
 <path fill="none" stroke="rgb(179,179,179)" stroke-linejoin="round" d="M 2977,3915 L 3127,3915"/>
 <path fill="none" stroke="rgb(179,179,179)" stroke-linejoin="round" d="M 2977,1973 L 3127,1973"/>
 <path fill="none" stroke="rgb(179,179,179)" stroke-linejoin="round" d="M 2977,1973 L 3127,1973"/>
 <path fill="none" stroke="rgb(179,179,179)" stroke-linejoin="round" d="M 3127,19457 L 3127,1973"/>
 <path fill="none" stroke="rgb(0,69,134)" stroke-width="80" stroke-linejoin="round" d="M 3127,19457 L 3531,19457 3936,19457 4340,19457 4745,19457 5149,19457 5554,16452 5958,12015 6363,7800 6767,4867 7172,3360 7577,3013 7981,3579 8386,4715 8790,6029 9195,7547 9599,8930 10004,10462 10408,11667 10813,12729 11218,13847 11622,14660 12027,15433 12431,16096 12836,16614 13240,17116 13645,17459 14049,17790 14454,18052 14858,18292 15263,18494 15668,18656 16072,18789 16477,18905 16881,18976 17286,19066 17690,19137 18095,19181 18499,19226 18904,19273 19309,19293 19713,19313 20118,19338 20522,19364 20927,19378 21331,19397 21736,19401 22140,19417 22545,19418 22949,19423 23354,19429 23758,19439 24162,19441 24567,19439 24971,19445 25376,19444 25780,19450 26185,19449 26589,19450 26994,19452 27398,19453 27803,19454 28208,19454 28612,19453 29017,19455 29421,19455 29826,19454 30230,19456 30635,19456 31039,19456 31444,19456 31849,19456 32253,19456 32658,19456 33062,19456 33467,19457 33871,19456 34276,19457 34680,19456 35085,19457 35490,19456 35894,19456 36299,19457 36703,19457 37108,19456 37512,19457 37917,19456 38321,19457 38726,19457 39130,19457 39535,19456"/>
 <text class="TextShape"><tspan class="TextParagraph" font-family="Liberation Sans, sans-serif" font-size="353px" font-weight="400"><tspan class="TextPosition" x="3034" y="20025"><tspan fill="rgb(0,0,0)" stroke="none">0</tspan></tspan></tspan></text>
 <text class="TextShape"><tspan class="TextParagraph" font-family="Liberation Sans, sans-serif" font-size="353px" font-weight="400"><tspan class="TextPosition" x="6987" y="20025"><tspan fill="rgb(0,0,0)" stroke="none">10</tspan></tspan></tspan></text>
 <text class="TextShape"><tspan class="TextParagraph" font-family="Liberation Sans, sans-serif" font-size="353px" font-weight="400"><tspan class="TextPosition" x="11033" y="20025"><tspan fill="rgb(0,0,0)" stroke="none">20</tspan></tspan></tspan></text>
 <text class="TextShape"><tspan class="TextParagraph" font-family="Liberation Sans, sans-serif" font-size="353px" font-weight="400"><tspan class="TextPosition" x="15078" y="20025"><tspan fill="rgb(0,0,0)" stroke="none">30</tspan></tspan></tspan></text>
 <text class="TextShape"><tspan class="TextParagraph" font-family="Liberation Sans, sans-serif" font-size="353px" font-weight="400"><tspan class="TextPosition" x="19124" y="20025"><tspan fill="rgb(0,0,0)" stroke="none">40</tspan></tspan></tspan></text>
 <text class="TextShape"><tspan class="TextParagraph" font-family="Liberation Sans, sans-serif" font-size="353px" font-weight="400"><tspan class="TextPosition" x="23169" y="20025"><tspan fill="rgb(0,0,0)" stroke="none">50</tspan></tspan></tspan></text>
 <text class="TextShape"><tspan class="TextParagraph" font-family="Liberation Sans, sans-serif" font-size="353px" font-weight="400"><tspan class="TextPosition" x="27214" y="20025"><tspan fill="rgb(0,0,0)" stroke="none">60</tspan></tspan></tspan></text>
 <text class="TextShape"><tspan class="TextParagraph" font-family="Liberation Sans, sans-serif" font-size="353px" font-weight="400"><tspan class="TextPosition" x="31260" y="20025"><tspan fill="rgb(0,0,0)" stroke="none">70</tspan></tspan></tspan></text>
 <text class="TextShape"><tspan class="TextParagraph" font-family="Liberation Sans, sans-serif" font-size="353px" font-weight="400"><tspan class="TextPosition" x="35306" y="20025"><tspan fill="rgb(0,0,0)" stroke="none">80</tspan></tspan></tspan></text>
 <text class="TextShape"><tspan class="TextParagraph" font-family="Liberation Sans, sans-serif" font-size="353px" font-weight="400"><tspan class="TextPosition" x="39351" y="20025"><tspan fill="rgb(0,0,0)" stroke="none">90</tspan></tspan></tspan></text>
 <text class="TextShape"><tspan class="TextParagraph" font-family="Liberation Sans, sans-serif" font-size="353px" font-weight="400"><tspan class="TextPosition" x="43303" y="20025"><tspan fill="rgb(0,0,0)" stroke="none">100</tspan></tspan></tspan></text>
 <text class="TextShape"><tspan class="TextParagraph" font-family="Liberation Sans, sans-serif" font-size="353px" font-weight="400"><tspan class="TextPosition" x="2692" y="19578"><tspan fill="rgb(0,0,0)" stroke="none">0</tspan></tspan></tspan></text>
 <text class="TextShape"><tspan class="TextParagraph" font-family="Liberation Sans, sans-serif" font-size="353px" font-weight="400"><tspan class="TextPosition" x="1951" y="17635"><tspan fill="rgb(0,0,0)" stroke="none">10000</tspan></tspan></tspan></text>
 <text class="TextShape"><tspan class="TextParagraph" font-family="Liberation Sans, sans-serif" font-size="353px" font-weight="400"><tspan class="TextPosition" x="1951" y="15692"><tspan fill="rgb(0,0,0)" stroke="none">20000</tspan></tspan></tspan></text>
 <text class="TextShape"><tspan class="TextParagraph" font-family="Liberation Sans, sans-serif" font-size="353px" font-weight="400"><tspan class="TextPosition" x="1951" y="13749"><tspan fill="rgb(0,0,0)" stroke="none">30000</tspan></tspan></tspan></text>
 <text class="TextShape"><tspan class="TextParagraph" font-family="Liberation Sans, sans-serif" font-size="353px" font-weight="400"><tspan class="TextPosition" x="1951" y="11806"><tspan fill="rgb(0,0,0)" stroke="none">40000</tspan></tspan></tspan></text>
 <text class="TextShape"><tspan class="TextParagraph" font-family="Liberation Sans, sans-serif" font-size="353px" font-weight="400"><tspan class="TextPosition" x="1951" y="9864"><tspan fill="rgb(0,0,0)" stroke="none">50000</tspan></tspan></tspan></text>
 <text class="TextShape"><tspan class="TextParagraph" font-family="Liberation Sans, sans-serif" font-size="353px" font-weight="400"><tspan class="TextPosition" x="1951" y="7921"><tspan fill="rgb(0,0,0)" stroke="none">60000</tspan></tspan></tspan></text>
 <text class="TextShape"><tspan class="TextParagraph" font-family="Liberation Sans, sans-serif" font-size="353px" font-weight="400"><tspan class="TextPosition" x="1951" y="5978"><tspan fill="rgb(0,0,0)" stroke="none">70000</tspan></tspan></tspan></text>
 <text class="TextShape"><tspan class="TextParagraph" font-family="Liberation Sans, sans-serif" font-size="353px" font-weight="400"><tspan class="TextPosition" x="1951" y="4035"><tspan fill="rgb(0,0,0)" stroke="none">80000</tspan></tspan></tspan></text>
 <text class="TextShape"><tspan class="TextParagraph" font-family="Liberation Sans, sans-serif" font-size="353px" font-weight="400"><tspan class="TextPosition" x="1951" y="2093"><tspan fill="rgb(0,0,0)" stroke="none">90000</tspan></tspan></tspan></text>
 <text class="TextShape"><tspan class="TextParagraph" font-family="Liberation Sans, sans-serif" font-size="459px" font-weight="400"><tspan class="TextPosition" x="23258" y="1101"><tspan fill="rgb(0,0,0)" stroke="none">d6</tspan></tspan></tspan></text>
 <path fill="none" stroke="rgb(0,69,134)" stroke-width="80" stroke-linejoin="round" d="M 44916,10757 L 45716,10757"/>
 <text class="TextShape"><tspan class="TextParagraph" font-family="Liberation Sans, sans-serif" font-size="353px" font-weight="400"><tspan class="TextPosition" x="45816" y="10876"><tspan fill="rgb(0,0,0)" stroke="none">count</tspan></tspan></tspan></text>
 <text class="TextShape"><tspan class="TextParagraph" font-family="Liberation Sans, sans-serif" font-size="318px" font-weight="400"><tspan class="TextPosition" x="22403" y="20922"><tspan fill="rgb(0,0,0)" stroke="none">Length</tspan></tspan></tspan></text>
 <text class="TextShape" transform="rotate(-90 837 11376)"><tspan class="TextParagraph" font-family="Liberation Sans, sans-serif" font-size="318px" font-weight="400"><tspan class="TextPosition" x="837" y="11376"><tspan fill="rgb(0,0,0)" stroke="none">Count</tspan></tspan></tspan></text>
</svg>